<?xml version="1.0" encoding="UTF-8" standalone="no"?>
<!DOCTYPE svg PUBLIC "-//W3C//DTD SVG 1.1//EN" "http://www.w3.org/Graphics/SVG/1.1/DTD/svg11.dtd">
<svg width="100%" height="100%" viewBox="0 0 2272 2267" version="1.1" xmlns="http://www.w3.org/2000/svg" xmlns:xlink="http://www.w3.org/1999/xlink" xml:space="preserve" xmlns:serif="http://www.serif.com/" style="fill-rule:evenodd;clip-rule:evenodd;stroke-linejoin:round;stroke-miterlimit:2;">
    <g transform="matrix(1,0,0,1,-139.076,-516.821)">
        <g transform="matrix(4.16667,0,0,4.16667,0,0)">
            <g transform="matrix(1,0,0,1,-15.6154,9.60218)">
                <g>
                    <g id="path13" transform="matrix(1.09798,0,0,1.09798,48.9935,114.434)">
                        <path d="M309.75,307.02C309.43,307.02 309.28,306.59 309.28,305.73C309.28,304.33 308.5,301.65 306.93,297.7C305.37,293.76 304.28,291.79 303.65,291.79C303.18,291.79 302.89,291.94 302.77,292.26C302.66,292.57 302.28,292.72 301.66,292.72C300.96,292.72 300.04,292.2 298.91,291.14C297.77,290.09 297.21,289.25 297.21,288.62C297.21,288.39 297.68,287.47 298.61,285.87C299.55,284.27 300.14,283.47 300.37,283.47C302.71,283.47 304.8,284.83 306.64,287.57C308.48,290.3 309.75,293.9 310.45,298.35L310.57,298.58L310.57,299.17L310.68,299.17C310.76,299.17 310.8,299.13 310.8,299.05C310.8,298.97 310.88,298.74 311.03,298.35C311.42,295.69 312.36,291.75 313.85,286.51C315.41,282.76 317.09,280.89 318.89,280.89C319.9,280.89 320.84,281.49 321.7,282.71C322.56,283.92 322.99,284.87 322.99,285.58C322.99,286.12 322.83,286.88 322.52,287.86C322.21,288.84 321.78,289.33 321.23,289.33C321.07,289.33 320.64,288.9 319.94,288.04C319.24,287.18 318.49,286.75 317.71,286.75C316.07,286.75 314.55,290.62 313.14,298.35C312.6,301.79 311.93,304.17 311.15,305.5C310.6,306.51 310.14,307.02 309.75,307.02Z" style="fill:rgb(0,162,181);"/>
                    </g>
                    <g id="path14" transform="matrix(1.09798,0,0,1.09798,48.9935,114.434)">
                        <path d="M138.09,298.43C138.09,300.48 137.23,302.76 135.6,305.35C133.91,308.03 131.68,310.31 128.99,312.22C127.94,312.95 127.31,313.35 127.13,313.35C127.09,313.35 127.09,313.31 127.09,313.27C127.09,313.13 127.54,312.53 128.4,311.58C132.86,306.76 135.09,303.53 135.09,301.89C135.09,300.39 134.36,299.62 132.95,299.62C132.13,299.62 131.45,299.8 130.82,300.25C130.32,300.57 130.04,300.75 129.91,300.75C129.81,300.71 129.72,300.62 129.59,300.62C129.63,300.44 129.72,300.02 129.86,299.34C130.54,296.03 132.23,294.39 134.82,294.39C137,294.39 138.09,295.75 138.09,298.43Z" style="fill:rgb(0,162,181);"/>
                    </g>
                    <g id="path15" transform="matrix(1.09798,0,0,1.09798,48.9935,114.434)">
                        <path d="M218.47,379.84C218.15,379.84 218,379.41 218,378.55C218,377.15 217.22,374.47 215.65,370.53C214.09,366.58 213,364.61 212.37,364.61C211.9,364.61 211.61,364.76 211.49,365.08C211.38,365.39 211,365.55 210.38,365.55C209.68,365.55 208.76,365.02 207.63,363.96C206.49,362.91 205.93,362.07 205.93,361.44C205.93,361.21 206.4,360.29 207.33,358.69C208.27,357.09 208.86,356.29 209.09,356.29C211.43,356.29 213.52,357.66 215.36,360.39C217.2,363.12 218.47,366.72 219.17,371.17L219.29,371.4L219.29,371.99L219.4,371.99C219.48,371.99 219.52,371.95 219.52,371.87C219.52,371.8 219.6,371.56 219.75,371.17C220.15,368.51 221.08,364.57 222.57,359.34C224.13,355.59 225.81,353.71 227.61,353.71C228.62,353.71 229.56,354.32 230.42,355.53C231.28,356.74 231.71,357.69 231.71,358.4C231.71,358.94 231.55,359.71 231.24,360.68C230.93,361.66 230.5,362.15 229.95,362.15C229.79,362.15 229.36,361.72 228.66,360.86C227.96,360 227.21,359.57 226.43,359.57C224.79,359.57 223.27,363.44 221.86,371.17C221.32,374.61 220.65,376.99 219.87,378.32C219.32,379.33 218.86,379.84 218.47,379.84Z" style="fill:rgb(0,162,181);"/>
                    </g>
                    <g id="path16" transform="matrix(1.09798,0,0,1.09798,48.9935,114.434)">
                        <path d="M59.17,185.4C58.86,185.4 58.7,184.97 58.7,184.11C58.7,182.7 57.92,180.03 56.36,176.08C54.79,172.14 53.7,170.16 53.08,170.16C52.61,170.16 52.31,170.32 52.2,170.63C52.08,170.95 51.71,171.1 51.08,171.1C50.38,171.1 49.46,170.58 48.33,169.52C47.2,168.47 46.63,167.63 46.63,167C46.63,166.77 47.1,165.85 48.04,164.25C48.97,162.65 49.56,161.85 49.79,161.85C52.14,161.85 54.23,163.21 56.06,165.95C57.9,168.68 59.17,172.27 59.87,176.73L59.99,176.96L59.99,177.55L60.11,177.55C60.18,177.55 60.22,177.51 60.22,177.43C60.22,177.35 60.3,177.12 60.46,176.73C60.85,174.07 61.79,170.13 63.27,164.89C64.83,161.14 66.51,159.27 68.31,159.27C69.32,159.27 70.26,159.87 71.12,161.08C71.98,162.29 72.41,163.25 72.41,163.95C72.41,164.5 72.25,165.26 71.94,166.24C71.63,167.22 71.2,167.7 70.65,167.7C70.5,167.7 70.07,167.27 69.36,166.42C68.66,165.56 67.92,165.13 67.14,165.13C65.5,165.13 63.97,168.99 62.57,176.73C62.02,180.16 61.36,182.55 60.57,183.88C60.03,184.89 59.56,185.4 59.17,185.4Z" style="fill:rgb(0,162,181);"/>
                    </g>
                    <g id="path17" transform="matrix(1.09798,0,0,1.09798,48.9935,114.434)">
                        <path d="M408.79,337.9C408.42,337.9 408.24,337.39 408.24,336.38C408.24,334.73 407.32,331.59 405.48,326.95C403.64,322.31 402.36,319.99 401.62,319.99C401.07,319.99 400.73,320.18 400.59,320.55C400.45,320.91 400.02,321.1 399.28,321.1C398.46,321.1 397.38,320.48 396.05,319.24C394.71,318 394.05,317.01 394.05,316.28C394.05,316 394.6,314.92 395.7,313.04C396.8,311.16 397.49,310.22 397.77,310.22C400.52,310.22 402.98,311.82 405.14,315.04C407.29,318.25 408.79,322.47 409.61,327.71L409.75,327.98L409.75,328.67L409.89,328.67C409.98,328.67 410.03,328.63 410.03,328.53C410.03,328.44 410.12,328.17 410.3,327.71C410.76,324.59 411.86,319.95 413.61,313.8C415.44,309.39 417.42,307.19 419.53,307.19C420.72,307.19 421.82,307.9 422.83,309.32C423.84,310.74 424.35,311.87 424.35,312.69C424.35,313.34 424.17,314.23 423.8,315.38C423.43,316.53 422.93,317.1 422.28,317.1C422.1,317.1 421.6,316.6 420.77,315.59C419.94,314.58 419.07,314.07 418.15,314.07C416.22,314.07 414.43,318.62 412.78,327.71C412.14,331.75 411.36,334.55 410.44,336.11C409.8,337.3 409.25,337.9 408.79,337.9Z" style="fill:rgb(0,162,181);"/>
                    </g>
                    <g id="path18" transform="matrix(1.09798,0,0,1.09798,48.9935,114.434)">
                        <path d="M228.18,289.09C229.14,291.04 229.38,293.61 229.05,296.86C228.71,300.22 227.66,303.43 226,306.53C225.35,307.72 224.94,308.4 224.76,308.49C224.71,308.51 224.69,308.47 224.67,308.43C224.6,308.3 224.77,307.51 225.13,306.19C227.11,299.5 227.71,295.37 226.94,293.81C226.23,292.37 225.17,291.97 223.83,292.64C223.04,293.02 222.48,293.52 222.09,294.26C221.76,294.79 221.59,295.1 221.46,295.17C221.35,295.16 221.22,295.12 221.09,295.19C221.05,294.98 220.94,294.56 220.75,293.84C219.83,290.35 220.66,288 223.14,286.78C225.22,285.75 226.91,286.53 228.18,289.09Z" style="fill:rgb(0,162,181);"/>
                    </g>
                    <g id="path19" transform="matrix(1.09798,0,0,1.09798,48.9935,114.434)">
                        <path d="M231.22,457.51C231.22,460.04 230.14,462.86 228.1,466.09C226.02,469.42 223.25,472.24 219.91,474.62C218.61,475.52 217.83,476.03 217.6,476.03C217.54,476.03 217.54,475.97 217.54,475.92C217.54,475.75 218.11,475.01 219.18,473.82C224.72,467.84 227.48,463.83 227.48,461.8C227.48,459.93 226.58,458.96 224.83,458.96C223.81,458.96 222.97,459.2 222.17,459.76C221.56,460.15 221.21,460.39 221.04,460.39C220.93,460.32 220.82,460.21 220.65,460.21C220.71,459.98 220.82,459.48 220.99,458.63C221.84,454.5 223.92,452.48 227.15,452.48C229.86,452.48 231.22,454.17 231.22,457.51Z" style="fill:rgb(0,162,181);"/>
                    </g>
                    <g id="path20" transform="matrix(1.09798,0,0,1.09798,48.9935,114.434)">
                        <path d="M285.07,407.82C286.76,409 289.37,409.59 292.91,409.59C300.16,409.59 306.48,407.65 311.87,403.78C314.06,402.26 318.95,397.71 326.54,390.12C327.38,389.28 328.22,388.86 329.07,388.86C329.91,388.86 330.33,389.36 330.33,390.37C330.33,390.71 330.25,391.39 330.08,392.4C329.91,393.41 329.82,394.17 329.82,394.67C329.82,397.54 330.41,399.98 331.59,402.01C333.28,404.53 335.64,405.8 338.67,405.8C344.41,405.8 348.2,404.37 350.05,401.5C350.05,399.98 349.04,397.62 347.02,394.42C346.18,392.9 345.75,391.55 345.75,390.37C345.75,389.53 346.68,386.08 348.54,380.01C348.87,378.83 349.29,378.24 349.8,378.24C350.31,378.24 350.9,379 351.57,380.51C353.93,385.57 355.11,390.21 355.11,394.42C355.11,402.85 353.34,409.42 349.8,414.14C346.6,418.36 342.89,420.46 338.67,420.46C330.08,420.46 325.61,415.41 325.27,405.29C325.27,404.79 325.02,404.53 324.51,404.53C323.67,404.53 322.83,404.96 321.99,405.8C317.1,411.53 313.98,414.98 312.63,416.16C306.39,421.56 299.82,424.26 292.91,424.26C287.68,424.26 283.64,423.16 280.77,420.97C276.56,417.93 273.78,412.2 272.43,403.78C271.58,399.22 270.91,388.44 270.4,371.41C269.73,352.02 268.89,336.94 267.88,326.15C266.86,316.2 264.93,306.76 262.06,297.83C262.06,295.47 262.99,291.85 264.84,286.96C265.35,285.78 265.77,285.19 266.11,285.19C266.44,285.19 266.86,285.69 267.37,286.7C270.4,292.77 272.68,303.14 274.2,317.81C275.38,327.25 276.22,342.16 276.73,362.56C277.4,381.27 277.91,391.89 278.24,394.42C279.42,401.33 281.7,405.8 285.07,407.82Z" style="fill:rgb(255,176,0);"/>
                    </g>
                    <g id="path21" transform="matrix(1.09798,0,0,1.09798,48.9935,114.434)">
                        <path d="M150.3,329.69C155.36,334.07 160.92,336.26 166.99,336.26C171.71,336.26 176.26,334.49 180.64,330.95C181.99,329.94 182.66,325.98 182.66,319.07C182.66,315.02 181.32,295.39 178.62,260.16C176.09,224.92 174.83,204.78 174.83,199.72C174.83,195 174.15,191.13 172.8,188.09C172.8,186.41 174.15,182.36 176.85,175.96C177.19,175.11 177.44,174.69 177.61,174.69C177.94,174.69 178.28,175.11 178.62,175.96C179.29,177.64 181.15,182.19 184.18,189.61C187.05,197.53 188.73,202.42 189.24,204.27C189.74,205.62 190,206.63 190,207.31C190,209.5 187.89,208.15 183.68,203.26C183.17,202.59 182.92,202.93 182.92,204.27C182.92,204.61 184.1,220.63 186.46,252.32C188.82,284.01 190,302.3 190,307.19C190,321.51 187.38,332.72 182.16,340.81C177.94,347.73 172.89,351.18 166.99,351.18C161.43,351.18 156.62,350 152.58,347.64C151.73,347.14 148.95,344.94 144.23,341.07C141.37,338.88 138.58,337.78 135.89,337.78C125.27,337.78 113.3,344.52 99.98,358.01C95.94,362.22 90.54,368.46 83.8,376.72C78.07,383.97 73.77,388.86 70.9,391.39C66.52,395.26 62.14,397.2 57.76,397.2C52.87,397.2 48.65,395.01 45.11,390.63C41.24,386.08 39.3,380.51 39.3,373.94C39.3,365 43.01,353.2 50.42,338.54C51.27,337.19 51.94,336.52 52.45,336.52C52.61,336.52 52.7,336.69 52.7,337.02C52.7,338.37 51.1,343.43 47.89,352.19C44.69,360.96 43.09,367.79 43.09,372.67C43.09,376.55 43.93,379.67 45.62,382.03C47.47,384.56 50.17,385.82 53.71,385.82C58.94,385.82 65.34,381.78 72.93,373.69C79.5,366.1 85.99,358.6 92.4,351.18C108.75,332.47 123.24,323.12 135.89,323.12C140.61,323.12 145.41,325.31 150.3,329.69Z" style="fill:rgb(255,97,6);"/>
                    </g>
                    <g id="path22" transform="matrix(1.09798,0,0,1.09798,48.9935,114.434)">
                        <path d="M413.01,386.83C414.53,388.52 417.06,389.36 420.6,389.36C425.32,389.36 429.87,387.59 434.25,384.05C435.6,383.04 436.28,379.08 436.28,372.17C436.28,367.11 435.6,356.32 434.25,339.8C433.07,323.45 432.48,313.25 432.48,309.21C432.48,304.66 431.72,300.78 430.21,297.58C430.21,296.06 431.64,292.01 434.51,285.44C434.67,284.77 434.93,284.43 435.26,284.43C435.6,284.43 435.94,284.85 436.28,285.69C437.12,287.38 438.97,291.93 441.84,299.35C444.7,307.27 446.47,312.07 447.15,313.76C447.32,315.28 447.4,316.37 447.4,317.05C447.4,319.07 445.38,317.81 441.33,313.25C440.83,312.41 440.57,312.66 440.57,314.01C440.57,314.35 441.08,320.92 442.09,333.74C443.1,346.55 443.61,355.4 443.61,360.28C443.61,374.61 441,385.82 435.77,393.91C431.56,400.66 426.5,404.03 420.6,404.03C418.91,404.03 417.65,403.86 416.81,403.52C416.81,413.64 416.22,421.31 415.04,426.53C413.86,432.26 411.83,436.65 408.97,439.68C400.88,447.6 391.1,454.6 379.64,460.67C364.97,468.42 351.23,472.3 338.42,472.3C320.05,472.3 307.32,463.28 300.24,445.24C298.89,441.7 298.22,437.15 298.22,431.59C298.22,428.05 298.56,424.42 299.23,420.72C300.07,415.15 301.25,410.35 302.77,406.3C303.28,404.96 303.78,404.28 304.29,404.28C304.79,404.28 304.88,405.12 304.54,406.81C304.37,408.16 304.12,409.42 303.78,410.6C303.44,411.95 303.11,413.21 302.77,414.39C301.93,418.95 301.51,422.32 301.51,424.51C301.51,431.93 303.95,438.75 308.84,444.99C315.58,453.42 325.36,457.63 338.17,457.63C349.29,457.63 361.01,454.94 373.32,449.54C382.92,445.33 391.94,440.02 400.37,433.61C407.28,428.22 411.33,424.17 412.51,421.47C412.51,413.21 410.23,404.53 405.68,395.43C404.67,393.58 404.16,392.23 404.16,391.39C404.16,390.71 405.09,387.17 406.94,380.77C407.45,379.75 407.87,379.25 408.21,379.25C408.71,379.25 409.39,380.01 410.23,381.52C411.41,384.39 412.34,386.16 413.01,386.83Z" style="fill:rgb(255,176,0);"/>
                    </g>
                    <g id="path23" transform="matrix(1.09798,0,0,1.09798,48.9935,114.434)">
                        <path d="M323.46,253.45C323.15,255.52 321.94,257.67 319.89,260.04C317.79,262.48 315.2,264.43 312.21,265.94C311.04,266.52 310.34,266.84 310.16,266.81C310.11,266.81 310.12,266.76 310.13,266.71C310.15,266.58 310.7,266.05 311.72,265.22C316.93,261.03 319.67,258.12 319.91,256.47C320.14,254.96 319.52,254.07 318.1,253.86C317.28,253.74 316.57,253.81 315.86,254.18C315.3,254.42 315,254.56 314.87,254.54C314.77,254.49 314.7,254.38 314.56,254.35C314.64,254.18 314.79,253.79 315.03,253.11C316.22,249.88 318.17,248.48 320.78,248.88C322.97,249.21 323.87,250.75 323.46,253.45Z" style="fill:rgb(0,162,181);"/>
                    </g>
                    <g id="path24" transform="matrix(1.09798,0,0,1.09798,48.9935,114.434)">
                        <path d="M496.59,239.64C496.59,241.59 495.77,243.76 494.21,246.22C492.61,248.78 490.49,250.94 487.94,252.75C486.94,253.45 486.33,253.84 486.16,253.84C486.11,253.84 486.11,253.79 486.11,253.75C486.11,253.62 486.55,253.06 487.37,252.15C491.61,247.57 493.73,244.49 493.73,242.93C493.73,241.5 493.04,240.77 491.7,240.77C490.92,240.77 490.28,240.94 489.67,241.38C489.19,241.68 488.93,241.85 488.8,241.85C488.72,241.81 488.62,241.72 488.5,241.72C488.54,241.55 488.62,241.16 488.75,240.5C489.4,237.35 491.01,235.79 493.48,235.79C495.55,235.79 496.59,237.09 496.59,239.64Z" style="fill:rgb(0,162,181);"/>
                    </g>
                    <g id="path25" transform="matrix(1.09798,0,0,1.09798,48.9935,114.434)">
                        <path d="M315.77,477.88C315.77,479.57 315.05,481.45 313.69,483.59C312.31,485.81 310.47,487.68 308.25,489.27C307.38,489.87 306.86,490.2 306.71,490.2C306.67,490.2 306.67,490.16 306.67,490.13C306.67,490.02 307.05,489.53 307.76,488.74C311.44,484.76 313.28,482.09 313.28,480.74C313.28,479.5 312.68,478.85 311.52,478.85C310.84,478.85 310.28,479.01 309.75,479.38C309.34,479.64 309.11,479.8 309,479.8C308.92,479.76 308.85,479.68 308.74,479.68C308.78,479.53 308.85,479.19 308.97,478.63C309.53,475.88 310.91,474.53 313.06,474.53C314.86,474.53 315.77,475.66 315.77,477.88Z" style="fill:rgb(0,162,181);"/>
                    </g>
                    <g id="path26" transform="matrix(1.09798,0,0,1.09798,48.9935,114.434)">
                        <path d="M463.83,299.55C463.83,301.4 463.05,303.47 461.57,305.82C460.04,308.24 458.02,310.3 455.6,312.03C454.65,312.69 454.07,313.06 453.91,313.06C453.86,313.06 453.86,313.02 453.86,312.97C453.86,312.86 454.27,312.32 455.06,311.46C459.09,307.09 461.11,304.16 461.11,302.68C461.11,301.32 460.45,300.62 459.17,300.62C458.43,300.62 457.81,300.78 457.24,301.2C456.78,301.49 456.54,301.65 456.42,301.65C456.33,301.62 456.25,301.53 456.12,301.53C456.17,301.37 456.25,300.99 456.37,300.37C456.99,297.37 458.52,295.89 460.86,295.89C462.84,295.89 463.83,297.12 463.83,299.55Z" style="fill:rgb(0,162,181);"/>
                    </g>
                    <g id="path27" transform="matrix(1.09798,0,0,1.09798,48.9935,114.434)">
                        <path d="M387.7,363.19C387.7,365.7 386.65,368.53 384.62,371.72C382.52,375.02 379.77,377.88 376.46,380.21C375.15,381.15 374.36,381.64 374.1,381.64C374.06,381.64 374.06,381.6 374.06,381.57C374.06,381.34 374.62,380.66 375.71,379.42C381.2,373.45 383.94,369.46 383.94,367.47C383.94,365.56 383.05,364.62 381.28,364.62C380.34,364.62 379.43,364.88 378.64,365.4C378.08,365.79 377.7,366.01 377.56,366.05C377.48,365.97 377.33,365.89 377.18,365.86C377.25,365.63 377.33,365.14 377.48,364.32C378.38,360.18 380.41,358.15 383.64,358.15C386.35,358.15 387.7,359.84 387.7,363.19Z" style="fill:rgb(0,162,181);"/>
                    </g>
                    <g id="path28" transform="matrix(1.09798,0,0,1.09798,48.9935,114.434)">
                        <path d="M177.59,439.81C177.41,437.56 178.16,435 179.73,432.02C181.34,428.94 183.59,426.27 186.35,423.94C187.43,423.06 188.1,422.56 188.29,422.54C188.34,422.54 188.35,422.59 188.35,422.63C188.36,422.78 187.92,423.47 187.05,424.59C182.59,430.24 180.43,433.98 180.57,435.76C180.7,437.41 181.57,438.19 183.1,438.07C184,438 184.74,437.73 185.39,437.18C185.91,436.79 186.19,436.58 186.34,436.57C186.44,436.6 186.56,436.7 186.7,436.69C186.67,436.89 186.61,437.34 186.52,438.11C186.05,441.79 184.35,443.73 181.52,443.95C179.12,444.14 177.82,442.74 177.59,439.81Z" style="fill:rgb(0,162,181);"/>
                    </g>
                    <g id="path29" transform="matrix(1.09798,0,0,1.09798,48.9935,114.434)">
                        <path d="M137.27,404.81C137.27,406.83 136.41,409.08 134.79,411.64C133.13,414.3 130.93,416.54 128.27,418.43C127.24,419.16 126.61,419.56 126.43,419.56C126.38,419.56 126.38,419.51 126.38,419.47C126.38,419.33 126.84,418.75 127.69,417.8C132.1,413.04 134.29,409.85 134.29,408.23C134.29,406.74 133.58,405.97 132.19,405.97C131.38,405.97 130.7,406.16 130.07,406.61C129.58,406.92 129.31,407.1 129.17,407.1C129.08,407.06 129,406.97 128.86,406.97C128.91,406.78 129,406.38 129.13,405.71C129.81,402.42 131.46,400.81 134.03,400.81C136.19,400.81 137.27,402.16 137.27,404.81Z" style="fill:rgb(0,162,181);"/>
                    </g>
                    <g id="path30" transform="matrix(1.09798,0,0,1.09798,48.9935,114.434)">
                        <path d="M55.13,370.7C54.9,368.64 55.51,366.27 56.86,363.49C58.25,360.61 60.23,358.09 62.7,355.87C63.67,355.03 64.26,354.54 64.44,354.52C64.49,354.52 64.5,354.57 64.5,354.62C64.52,354.74 64.13,355.39 63.37,356.44C59.44,361.77 57.57,365.26 57.75,366.9C57.92,368.41 58.74,369.1 60.15,368.94C60.97,368.85 61.63,368.58 62.21,368.06C62.69,367.69 62.93,367.48 63.07,367.46C63.17,367.49 63.27,367.58 63.41,367.57C63.38,367.75 63.34,368.16 63.28,368.87C62.97,372.27 61.46,374.1 58.86,374.39C56.67,374.64 55.43,373.39 55.13,370.7Z" style="fill:rgb(0,162,181);"/>
                    </g>
                    <g id="path31" transform="matrix(1.09798,0,0,1.09798,48.9935,114.434)">
                        <path d="M101.35,379.64C101.55,377.75 102.58,375.71 104.36,373.47C106.19,371.15 108.49,369.25 111.17,367.75C112.21,367.17 112.84,366.85 113.02,366.87C113.05,366.87 113.05,366.92 113.04,366.97C113.03,367.09 112.55,367.59 111.66,368.39C107.03,372.43 104.64,375.21 104.48,376.73C104.33,378.13 104.93,378.91 106.24,379.05C107,379.13 107.65,379.04 108.3,378.68C108.79,378.43 109.06,378.29 109.19,378.3C109.27,378.35 109.34,378.45 109.47,378.46C109.4,378.62 109.28,379 109.09,379.62C108.12,382.63 106.4,383.98 103.99,383.73C101.96,383.51 101.08,382.14 101.35,379.64Z" style="fill:rgb(0,162,181);"/>
                    </g>
                    <g id="path32" transform="matrix(1.09798,0,0,1.09798,48.9935,114.434)">
                        <path d="M482.58,193.88C482.58,195.81 481.76,197.96 480.22,200.39C478.63,202.92 476.53,205.07 474,206.86C473.02,207.55 472.41,207.93 472.25,207.93C472.2,207.93 472.2,207.89 472.2,207.85C472.2,207.72 472.63,207.16 473.45,206.27C477.65,201.72 479.74,198.68 479.74,197.14C479.74,195.72 479.06,195 477.73,195C476.96,195 476.32,195.17 475.71,195.59C475.25,195.9 474.99,196.07 474.86,196.07C474.78,196.02 474.69,195.94 474.56,195.94C474.6,195.77 474.69,195.38 474.81,194.74C475.46,191.61 477.04,190.07 479.49,190.07C481.54,190.07 482.58,191.35 482.58,193.88Z" style="fill:rgb(0,162,181);"/>
                    </g>
                    <g id="path33" transform="matrix(1.09798,0,0,1.09798,48.9935,114.434)">
                        <path d="M256.23,492.07C255.78,490.25 256.05,488.03 256.94,485.35C257.85,482.6 259.33,480.07 261.3,477.78C262.07,476.9 262.55,476.39 262.71,476.35C262.76,476.34 262.77,476.39 262.78,476.43C262.81,476.54 262.52,477.17 261.97,478.22C259.06,483.5 257.79,486.87 258.15,488.33C258.48,489.67 259.29,490.19 260.55,489.88C261.28,489.7 261.85,489.39 262.32,488.85C262.69,488.45 262.9,488.23 263.02,488.2C263.11,488.21 263.21,488.28 263.33,488.25C263.33,488.42 263.34,488.81 263.37,489.45C263.49,492.55 262.36,494.38 260.04,494.96C258.1,495.44 256.82,494.46 256.23,492.07Z" style="fill:rgb(0,162,181);"/>
                    </g>
                    <g id="path34" transform="matrix(1.09798,0,0,1.09798,48.9935,114.434)">
                        <path d="M275.72,454.72C275.6,452.43 276.45,449.85 278.14,446.86C279.86,443.78 282.22,441.11 285.11,438.84C286.24,437.96 286.92,437.47 287.13,437.46C287.19,437.45 287.19,437.51 287.19,437.56C287.2,437.71 286.71,438.39 285.81,439.51C281.1,445.15 278.8,448.87 278.89,450.7C278.97,452.38 279.82,453.19 281.4,453.12C282.31,453.07 283.06,452.83 283.75,452.28C284.28,451.9 284.58,451.69 284.74,451.68C284.84,451.72 284.94,451.82 285.1,451.82C285.05,452.02 284.98,452.49 284.86,453.25C284.28,456.99 282.5,458.92 279.6,459.06C277.17,459.18 275.87,457.72 275.72,454.72Z" style="fill:rgb(0,162,181);"/>
                    </g>
                    <g id="path35" transform="matrix(1.09798,0,0,1.09798,48.9935,114.434)">
                        <path d="M197.69,486.3C198.6,486.3 199.46,485.88 200.28,485.09C201.22,484.19 201.71,483.06 201.71,481.67C201.71,480.17 200.85,479.42 199.16,479.42C198.41,479.42 197.76,479.68 197.2,480.13C197.2,479.23 197.81,477.88 199.04,476C200.17,474.27 201.26,472.92 202.39,471.9C202.66,471.6 202.73,471.34 202.62,471.11C202.58,470.93 202.39,470.88 202.09,471.08C200.66,471.95 199.12,473.59 197.5,476C195.63,478.71 194.72,481.04 194.72,482.99C194.72,485.17 195.7,486.3 197.69,486.3Z" style="fill:rgb(0,162,181);"/>
                    </g>
                    <g id="path36" transform="matrix(1.09798,0,0,1.09798,48.9935,114.434)">
                        <path d="M221.91,337.86C220.94,335.91 220.7,333.33 221.04,330.08C221.37,326.73 222.43,323.51 224.08,320.42C224.74,319.23 225.15,318.54 225.33,318.46C225.38,318.43 225.4,318.48 225.42,318.52C225.48,318.65 225.32,319.43 224.95,320.75C222.97,327.45 222.38,331.58 223.15,333.14C223.86,334.57 224.91,334.97 226.26,334.31C227.04,333.92 227.6,333.42 228,332.69C228.32,332.15 228.5,331.84 228.63,331.78C228.74,331.78 228.86,331.82 229,331.76C229.04,331.96 229.14,332.39 229.33,333.1C230.25,336.6 229.42,338.94 226.94,340.17C224.86,341.2 223.18,340.42 221.91,337.86Z" style="fill:rgb(0,162,181);"/>
                    </g>
                    <g id="path37" transform="matrix(1.09798,0,0,1.09798,48.9935,114.434)">
                        <path d="M137.71,283.01C137.71,280.97 138.58,278.69 140.2,276.1C141.89,273.41 144.12,271.13 146.81,269.23C147.86,268.5 148.49,268.09 148.68,268.09C148.71,268.09 148.71,268.13 148.71,268.18C148.71,268.32 148.26,268.91 147.4,269.86C142.94,274.69 140.71,277.92 140.71,279.55C140.71,281.05 141.44,281.83 142.85,281.83C143.67,281.83 144.35,281.65 144.98,281.19C145.49,280.88 145.76,280.69 145.89,280.69C145.99,280.74 146.08,280.83 146.22,280.83C146.17,281.01 146.08,281.42 145.94,282.1C145.26,285.42 143.57,287.06 140.99,287.06C138.8,287.06 137.71,285.69 137.71,283.01Z" style="fill:rgb(0,162,181);"/>
                    </g>
                    <g id="path38" transform="matrix(1.09798,0,0,1.09798,48.9935,114.434)">
                        <path d="M18.31,272.52C17.79,270.48 18.08,267.99 19.06,264.97C20.07,261.85 21.72,259.02 23.91,256.42C24.77,255.42 25.31,254.86 25.49,254.81C25.54,254.8 25.55,254.85 25.56,254.89C25.6,255.03 25.29,255.73 24.67,256.91C21.44,262.86 20.02,266.66 20.44,268.3C20.82,269.8 21.75,270.4 23.16,270.04C23.98,269.83 24.61,269.47 25.13,268.86C25.56,268.41 25.77,268.16 25.91,268.12C26.03,268.15 26.14,268.21 26.28,268.18C26.27,268.38 26.29,268.8 26.32,269.52C26.48,273.02 25.21,275.08 22.62,275.74C20.43,276.3 19,275.21 18.31,272.52Z" style="fill:rgb(0,162,181);"/>
                    </g>
                    <g id="path39" transform="matrix(1.09798,0,0,1.09798,48.9935,114.434)">
                        <path d="M87.83,130.48C87.12,128.55 87.14,126.08 87.79,123.05C88.44,119.92 89.75,116.98 91.63,114.24C92.37,113.18 92.82,112.56 93,112.5C93.05,112.48 93.06,112.52 93.08,112.57C93.13,112.69 92.89,113.42 92.41,114.63C89.88,120.76 88.9,124.6 89.48,126.16C90,127.58 90.95,128.05 92.29,127.56C93.07,127.27 93.65,126.87 94.1,126.21C94.46,125.73 94.66,125.46 94.79,125.42C94.88,125.42 95,125.48 95.14,125.44C95.15,125.62 95.21,126.05 95.32,126.74C95.83,130.12 94.82,132.26 92.36,133.17C90.29,133.93 88.77,133.03 87.83,130.48Z" style="fill:rgb(0,162,181);"/>
                    </g>
                    <g id="path5" transform="matrix(0.24,0,0,0.24,0,0)">
                        <path d="M1775.07,654.728C1754.3,643.931 1743.82,632.54 1743.82,620.691C1743.82,606.417 1750.5,593.379 1763.59,581.484C1776.81,569.635 1787.79,565.152 1796.57,568.446C1803.98,571.008 1807.55,578.922 1807.55,592.189C1807.55,604.038 1805.17,617.443 1800.18,632.22C1810.66,638.259 1817.39,643.382 1819.95,647.5C1819.95,653.173 1815.33,662.643 1805.86,676.047C1803.25,671.93 1796.94,666.76 1786.78,660.584C1775.07,676.779 1760.29,691.51 1742.4,704.778C1722.14,719.738 1703.38,731.083 1686.41,738.632C1682.98,740.37 1663.17,747.919 1627.39,761.14C1621.72,763.245 1618.1,764.251 1616.23,764.251C1615.4,764.251 1614.99,763.931 1614.99,763.565C1614.99,762.193 1618.1,759.448 1624.33,755.467C1650.77,739.821 1677.3,724.038 1703.93,708.026C1735.72,688.765 1759.42,671.106 1775.07,654.728ZM1787.79,625.678C1789.89,619.318 1790.21,612.822 1789.16,606.234C1787.79,599.052 1784.54,595.621 1779.41,595.621C1776.94,595.621 1773.56,596.81 1769.4,599.052C1765.1,601.431 1762.85,603.672 1762.85,605.914C1762.85,611.038 1771.32,617.763 1787.79,625.678Z" style="fill:rgb(0,162,181);"/>
                    </g>
                    <g id="path41" transform="matrix(1.09798,0,0,1.09798,48.9935,114.434)">
                        <path d="M356.31,188.23C365.86,184.84 376.19,181.2 387.35,177.22C388.14,176.96 388.59,176.84 388.74,176.96C388.93,177.1 388.89,177.52 388.59,178.2C387.69,180.33 387.01,181.65 386.45,182.06C377.05,185.33 366.2,189.65 353.83,194.99C354.36,192.92 355.18,190.67 356.31,188.23Z" style="fill:rgb(0,162,181);"/>
                    </g>
                    <g id="path42" transform="matrix(1.09798,0,0,1.09798,48.9935,114.434)">
                        <path d="M426.24,75.49C426.24,78.01 425.19,80.83 423.16,84.02C421.06,87.33 418.32,90.19 415.01,92.52C413.69,93.46 412.9,93.95 412.64,93.95C412.6,93.95 412.6,93.91 412.6,93.87C412.6,93.65 413.17,92.97 414.25,91.73C419.74,85.75 422.48,81.77 422.48,79.77C422.48,77.86 421.59,76.92 419.82,76.92C418.88,76.92 417.97,77.18 417.19,77.71C416.62,78.08 416.24,78.31 416.1,78.35C416.02,78.27 415.87,78.2 415.72,78.16C415.8,77.94 415.87,77.45 416.02,76.62C416.92,72.48 418.95,70.46 422.18,70.46C424.89,70.46 426.24,72.15 426.24,75.49Z" style="fill:rgb(0,162,181);"/>
                    </g>
                    <g id="path6" transform="matrix(0.24,0,0,0.24,0,0)">
                        <path d="M2063.38,860.873C2063.38,873.408 2059.08,885.44 2050.48,896.786C2041.37,909.184 2030.53,915.36 2018.36,915.36C2005.64,915.36 1999.24,909.184 1999.24,896.786C1999.24,887.819 2004.27,874.781 2014.2,857.762C2024.36,840.561 2032.96,832.143 2040.18,832.143C2046.36,832.143 2051.85,834.888 2056.52,840.24C2061,845.73 2063.38,852.638 2063.38,860.873ZM2052.35,874.964C2052.35,863.435 2044.3,857.579 2028.52,857.579C2026.28,857.579 2022.43,861.193 2017.17,868.422C2011.82,875.833 2009.26,880.774 2009.26,883.748C2011.13,887.819 2016.99,889.924 2027.1,889.924C2043.93,889.924 2052.35,884.937 2052.35,874.964Z" style="fill:rgb(0,162,181);"/>
                    </g>
                    <g id="path7" transform="matrix(0.24,0,0,0.24,0,0)">
                        <path d="M1984.83,779.531C1964.01,768.735 1953.54,757.389 1953.54,745.494C1953.54,731.221 1960.22,718.182 1973.34,706.287C1986.52,694.438 1997.55,690.001 2006.28,693.249C2013.69,695.811 2017.31,703.725 2017.31,716.993C2017.31,728.842 2014.93,742.246 2009.94,757.023C2020.42,763.062 2027.1,768.186 2029.71,772.349C2029.71,778.022 2025.09,787.446 2015.62,800.896C2013.01,796.733 2006.65,791.609 1996.54,785.387C1984.83,801.537 1970.05,816.314 1952.16,829.581C1931.85,844.541 1913.14,855.886 1896.12,863.435C1892.64,865.174 1872.88,872.722 1837.15,885.989C1831.48,888.048 1827.86,889.055 1825.94,889.055C1825.07,889.055 1824.75,888.689 1824.75,888.368C1824.75,886.996 1827.86,884.251 1834.04,880.316C1860.53,864.625 1886.97,848.795 1913.69,832.829C1945.44,813.614 1969.18,795.864 1984.83,779.531ZM1997.55,750.527C1999.6,744.122 1999.97,737.625 1998.92,731.083C1997.55,723.855 1994.3,720.424 1989.08,720.424C1986.7,720.424 1983.27,721.613 1979.15,723.855C1974.85,726.28 1972.61,728.521 1972.61,730.717C1972.61,735.887 1981.03,742.612 1997.55,750.527Z" style="fill:rgb(0,162,181);"/>
                    </g>
                    <g id="path45" transform="matrix(1.09798,0,0,1.09798,48.9935,114.434)">
                        <path d="M355.37,63.83C355.5,61.31 356.7,58.56 358.89,55.47C361.16,52.27 364.05,49.56 367.47,47.41C368.83,46.53 369.65,46.09 369.91,46.1C369.95,46.1 369.95,46.14 369.95,46.18C369.93,46.4 369.34,47.05 368.18,48.23C362.4,53.92 359.45,57.75 359.35,59.75C359.25,61.66 360.11,62.64 361.87,62.73C362.81,62.78 363.72,62.57 364.54,62.08C365.12,61.73 365.5,61.53 365.66,61.5C365.73,61.58 365.87,61.66 366.02,61.71C365.93,61.92 365.83,62.41 365.64,63.23C364.53,67.31 362.4,69.23 359.17,69.06C356.47,68.92 355.2,67.17 355.37,63.83Z" style="fill:rgb(0,162,181);"/>
                    </g>
                    <g id="path46" transform="matrix(1.09798,0,0,1.09798,48.9935,114.434)">
                        <path d="M366.04,119.01C366.04,121.53 364.99,124.35 362.96,127.54C360.86,130.85 358.12,133.7 354.81,136.03C353.49,136.97 352.7,137.46 352.44,137.46C352.4,137.46 352.4,137.42 352.4,137.38C352.4,137.16 352.97,136.48 354.05,135.24C359.54,129.27 362.28,125.29 362.28,123.29C362.28,121.37 361.39,120.44 359.62,120.44C358.68,120.44 357.77,120.7 356.99,121.22C356.42,121.6 356.05,121.83 355.9,121.86C355.82,121.79 355.67,121.71 355.52,121.67C355.6,121.45 355.67,120.96 355.82,120.13C356.72,116.01 358.75,113.98 361.98,113.98C364.69,113.98 366.04,115.66 366.04,119.01Z" style="fill:rgb(0,162,181);"/>
                    </g>
                    <g id="path47" transform="matrix(1.09798,0,0,1.09798,48.9935,114.434)">
                        <path d="M68.99,252.67C68.99,255.19 67.94,258.01 65.91,261.2C63.8,264.51 61.06,267.37 57.75,269.69C56.44,270.63 55.65,271.12 55.39,271.12C55.35,271.12 55.35,271.09 55.35,271.05C55.35,270.82 55.91,270.15 57,268.9C62.49,262.93 65.23,258.95 65.23,256.96C65.23,255.04 64.33,254.1 62.56,254.1C61.63,254.1 60.72,254.36 59.93,254.89C59.37,255.27 58.99,255.49 58.85,255.53C58.76,255.46 58.62,255.38 58.47,255.34C58.54,255.11 58.62,254.62 58.76,253.8C59.67,249.67 61.7,247.63 64.93,247.63C67.64,247.63 68.99,249.33 68.99,252.67Z" style="fill:rgb(0,162,181);"/>
                    </g>
                    <g id="path48" transform="matrix(1.09798,0,0,1.09798,48.9935,114.434)">
                        <path d="M127.61,170.68C127.61,173.7 126.35,177.08 123.91,180.92C121.38,184.89 118.09,188.32 114.12,191.12C112.54,192.24 111.6,192.83 111.27,192.83C111.23,192.83 111.23,192.79 111.23,192.74C111.23,192.47 111.91,191.66 113.21,190.17C119.8,183 123.1,178.21 123.1,175.82C123.1,173.52 122.02,172.39 119.89,172.39C118.76,172.39 117.69,172.7 116.74,173.34C116.06,173.79 115.61,174.06 115.42,174.11C115.34,174.02 115.16,173.93 114.98,173.88C115.06,173.61 115.16,173.02 115.34,172.03C116.42,167.06 118.85,164.63 122.74,164.63C125.98,164.63 127.61,166.66 127.61,170.68Z" style="fill:rgb(0,162,181);"/>
                    </g>
                    <g id="path49" transform="matrix(1.09798,0,0,1.09798,48.9935,114.434)">
                        <path d="M233.47,247.98C233.47,250.5 232.42,253.31 230.38,256.51C228.28,259.81 225.54,262.67 222.23,265C220.92,265.94 220.13,266.42 219.86,266.42C219.83,266.42 219.83,266.39 219.83,266.35C219.83,266.12 220.39,265.45 221.48,264.21C226.97,258.24 229.71,254.25 229.71,252.26C229.71,250.34 228.81,249.4 227.04,249.4C226.1,249.4 225.2,249.67 224.42,250.2C223.84,250.57 223.47,250.79 223.32,250.83C223.25,250.76 223.09,250.68 222.95,250.65C223.02,250.42 223.09,249.93 223.25,249.1C224.15,244.97 226.18,242.94 229.41,242.94C232.11,242.94 233.47,244.63 233.47,247.98Z" style="fill:rgb(0,162,181);"/>
                    </g>
                    <g id="path50" transform="matrix(1.09798,0,0,1.09798,48.9935,114.434)">
                        <path d="M183.45,381.04C184.81,381.04 186.12,380.44 187.32,379.27C188.75,377.89 189.46,376.19 189.46,374.13C189.46,371.87 188.18,370.74 185.63,370.74C184.51,370.74 183.53,371.08 182.7,371.79C182.7,370.44 183.64,368.41 185.48,365.63C187.17,363.04 188.83,360.97 190.48,359.47C190.86,359.02 191,358.64 190.86,358.31C190.74,358 190.48,357.96 190.03,358.23C187.89,359.55 185.59,361.98 183.15,365.63C180.37,369.69 178.98,373.19 178.98,376.12C178.98,379.39 180.44,381.04 183.45,381.04Z" style="fill:rgb(0,162,181);"/>
                    </g>
                    <g id="path51" transform="matrix(1.09798,0,0,1.09798,48.9935,114.434)">
                        <path d="M260.9,407.26C260.9,409.21 260.09,411.39 258.52,413.85C256.89,416.41 254.77,418.61 252.22,420.41C251.2,421.14 250.6,421.51 250.39,421.51C250.36,421.51 250.36,421.48 250.36,421.46C250.36,421.28 250.8,420.76 251.64,419.8C255.87,415.19 258,412.11 258,410.58C258,409.1 257.3,408.37 255.94,408.37C255.2,408.37 254.51,408.57 253.9,408.98C253.47,409.27 253.18,409.44 253.06,409.48C253,409.41 252.89,409.36 252.77,409.33C252.83,409.15 252.89,408.78 253,408.14C253.7,404.95 255.27,403.38 257.76,403.38C259.85,403.38 260.9,404.68 260.9,407.26Z" style="fill:rgb(0,162,181);"/>
                    </g>
                    <g id="path52" transform="matrix(1.09798,0,0,1.09798,48.9935,114.434)">
                        <path d="M374.89,340.94C374.36,338.79 374.65,336.16 375.7,333.01C376.79,329.74 378.52,326.72 380.84,324.02C381.76,322.95 382.33,322.36 382.56,322.3C382.59,322.3 382.6,322.33 382.61,322.36C382.65,322.55 382.32,323.25 381.65,324.54C378.25,330.81 376.76,334.78 377.19,336.48C377.59,338.11 378.56,338.73 380.07,338.35C380.87,338.15 381.58,337.73 382.15,337.11C382.54,336.68 382.82,336.4 382.93,336.34C383.01,336.39 383.16,336.42 383.29,336.41C383.28,336.63 383.32,337.06 383.36,337.79C383.48,341.51 382.18,343.67 379.43,344.36C377.12,344.94 375.61,343.79 374.89,340.94Z" style="fill:rgb(0,162,181);"/>
                    </g>
                    <g id="path53" transform="matrix(1.09798,0,0,1.09798,48.9935,114.434)">
                        <path d="M336.13,448.46C337.48,448.46 338.8,447.86 340,446.69C341.43,445.29 342.14,443.61 342.14,441.54C342.14,439.28 340.87,438.16 338.31,438.16C337.18,438.16 336.2,438.49 335.38,439.21C335.38,437.86 336.32,435.83 338.16,433.05C339.85,430.45 341.5,428.39 343.16,426.89C343.53,426.43 343.68,426.06 343.53,425.72C343.42,425.42 343.16,425.38 342.71,425.64C340.57,426.96 338.28,429.4 335.83,433.05C333.05,437.11 331.66,440.6 331.66,443.53C331.66,446.8 333.12,448.46 336.13,448.46Z" style="fill:rgb(0,162,181);"/>
                    </g>
                    <g id="path54" transform="matrix(1.09798,0,0,1.09798,48.9935,114.434)">
                        <path d="M383.48,420.84C383.48,423.35 382.43,426.17 380.4,429.37C378.29,432.67 375.55,435.53 372.24,437.86C370.93,438.8 370.14,439.28 369.88,439.28C369.84,439.28 369.84,439.25 369.84,439.21C369.84,438.98 370.4,438.31 371.49,437.07C376.98,431.1 379.72,427.11 379.72,425.12C379.72,423.2 378.82,422.27 377.05,422.27C376.11,422.27 375.21,422.53 374.43,423.05C373.86,423.43 373.48,423.65 373.33,423.69C373.26,423.62 373.1,423.54 372.96,423.5C373.03,423.28 373.1,422.79 373.26,421.96C374.16,417.83 376.19,415.8 379.43,415.8C382.12,415.8 383.48,417.49 383.48,420.84Z" style="fill:rgb(0,162,181);"/>
                    </g>
                    <g id="path55" transform="matrix(1.09798,0,0,1.09798,48.9935,114.434)">
                        <path d="M36.89,331.25C36.89,333.06 36.13,335.07 34.69,337.37C33.19,339.73 31.23,341.75 28.86,343.43C27.93,344.08 27.36,344.44 27.21,344.44C27.16,344.44 27.16,344.4 27.16,344.35C27.16,344.24 27.56,343.72 28.33,342.87C32.27,338.61 34.24,335.75 34.24,334.3C34.24,332.98 33.59,332.3 32.36,332.3C31.63,332.3 31.03,332.45 30.46,332.86C30.02,333.14 29.78,333.3 29.66,333.3C29.58,333.26 29.49,333.18 29.38,333.18C29.41,333.02 29.49,332.65 29.62,332.05C30.22,329.12 31.71,327.67 34,327.67C35.93,327.67 36.89,328.88 36.89,331.25Z" style="fill:rgb(0,162,181);"/>
                    </g>
                    <g id="path56" transform="matrix(1.09798,0,0,1.09798,48.9935,114.434)">
                        <path d="M134.83,34.38C134.83,36.07 134.12,37.96 132.76,40.09C131.37,42.31 129.53,44.19 127.31,45.77C126.44,46.37 125.92,46.71 125.77,46.71C125.73,46.71 125.73,46.67 125.73,46.63C125.73,46.52 126.11,46.03 126.83,45.25C130.5,41.26 132.35,38.59 132.35,37.24C132.35,36 131.74,35.36 130.58,35.36C129.9,35.36 129.34,35.51 128.82,35.88C128.4,36.15 128.17,36.3 128.06,36.3C127.98,36.26 127.91,36.19 127.8,36.19C127.84,36.04 127.91,35.7 128.02,35.13C128.59,32.39 129.98,31.04 132.12,31.04C133.92,31.04 134.83,32.16 134.83,34.38Z" style="fill:rgb(0,162,181);"/>
                    </g>
                    <g id="path57" transform="matrix(1.09798,0,0,1.09798,48.9935,114.434)">
                        <path d="M83.08,98.42C83.08,100.94 82.03,103.75 80,106.95C77.9,110.26 75.16,113.11 71.84,115.44C70.53,116.38 69.74,116.87 69.48,116.87C69.44,116.87 69.44,116.83 69.44,116.79C69.44,116.57 70,115.89 71.09,114.65C76.58,108.68 79.32,104.69 79.32,102.7C79.32,100.78 78.42,99.84 76.65,99.84C75.72,99.84 74.81,100.1 74.02,100.63C73.46,101.01 73.08,101.24 72.94,101.27C72.86,101.2 72.71,101.12 72.56,101.08C72.64,100.86 72.71,100.37 72.86,99.54C73.76,95.41 75.79,93.38 79.02,93.38C81.73,93.38 83.08,95.07 83.08,98.42Z" style="fill:rgb(0,162,181);"/>
                    </g>
                    <g id="path58" transform="matrix(1.09798,0,0,1.09798,48.9935,114.434)">
                        <path d="M124.86,91.6C124.16,89.18 124.39,86.18 125.45,82.55C126.55,78.78 128.39,75.28 130.92,72.12C131.92,70.85 132.55,70.16 132.8,70.09C132.83,70.08 132.85,70.12 132.86,70.16C132.92,70.37 132.57,71.18 131.86,72.67C128.25,79.94 126.72,84.52 127.28,86.44C127.81,88.28 128.93,88.93 130.63,88.44C131.53,88.18 132.33,87.68 132.94,86.95C133.38,86.43 133.68,86.11 133.81,86.04C133.9,86.09 134.07,86.12 134.22,86.11C134.21,86.35 134.28,86.84 134.36,87.68C134.65,91.9 133.26,94.41 130.16,95.3C127.55,96.06 125.79,94.81 124.86,91.6Z" style="fill:rgb(0,162,181);"/>
                    </g>
                    <g id="path59" transform="matrix(1.09798,0,0,1.09798,48.9935,114.434)">
                        <path d="M410.55,192.93C410.25,191.01 410.73,188.76 411.87,186.1C413.05,183.35 414.8,180.9 417.03,178.73C417.9,177.89 418.43,177.41 418.61,177.38C418.64,177.38 418.65,177.42 418.66,177.47C418.67,177.59 418.34,178.21 417.68,179.23C414.21,184.39 412.6,187.73 412.84,189.26C413.06,190.66 413.86,191.28 415.18,191.07C415.94,190.95 416.55,190.68 417.08,190.17C417.5,189.79 417.73,189.58 417.85,189.56C417.95,189.59 418.05,189.67 418.17,189.65C418.15,189.82 418.13,190.22 418.1,190.88C417.95,194.07 416.62,195.85 414.2,196.23C412.16,196.55 410.94,195.43 410.55,192.93Z" style="fill:rgb(0,162,181);"/>
                    </g>
                    <g id="path60" transform="matrix(1.09798,0,0,1.09798,48.9935,114.434)">
                        <path d="M21.27,175.86C21.27,178.38 20.21,181.2 18.19,184.39C16.08,187.7 13.33,190.56 10.03,192.88C8.72,193.83 7.93,194.32 7.67,194.32C7.62,194.32 7.62,194.28 7.62,194.24C7.62,194.02 8.19,193.34 9.28,192.1C14.77,186.12 17.51,182.14 17.51,180.14C17.51,178.23 16.6,177.29 14.84,177.29C13.9,177.29 13,177.55 12.21,178.08C11.65,178.46 11.27,178.69 11.12,178.72C11.04,178.64 10.89,178.57 10.74,178.53C10.82,178.31 10.89,177.82 11.04,176.99C11.95,172.85 13.98,170.83 17.21,170.83C19.91,170.83 21.27,172.52 21.27,175.86Z" style="fill:rgb(0,162,181);"/>
                    </g>
                    <g id="path61" transform="matrix(1.09798,0,0,1.09798,48.9935,114.434)">
                        <path d="M26.04,303.48C26.04,306 24.99,308.81 22.96,312.01C20.85,315.31 18.11,318.17 14.8,320.5C13.49,321.44 12.7,321.93 12.44,321.93C12.39,321.93 12.39,321.89 12.39,321.85C12.39,321.63 12.96,320.96 14.05,319.71C19.54,313.74 22.28,309.75 22.28,307.76C22.28,305.85 21.38,304.91 19.61,304.91C18.67,304.91 17.77,305.17 16.98,305.7C16.42,306.07 16.04,306.29 15.89,306.33C15.82,306.26 15.67,306.19 15.52,306.15C15.59,305.92 15.67,305.43 15.82,304.6C16.72,300.47 18.75,298.44 21.98,298.44C24.68,298.44 26.04,300.14 26.04,303.48Z" style="fill:rgb(0,162,181);"/>
                    </g>
                    <g id="path62" transform="matrix(1.09798,0,0,1.09798,48.9935,114.434)">
                        <path d="M116.9,438.49C117.09,438 117.32,437.71 117.5,437.56C117.65,437.44 117.77,437.48 117.8,437.67C117.88,437.86 117.88,438.2 117.8,438.68C117.35,442.55 116.22,446.01 114.49,449.09C112.77,452.14 110.89,453.68 108.86,453.68C106.6,453.72 104.91,452.59 103.75,450.18C102.62,447.81 102.1,444.62 102.25,440.6C102.43,435.64 104.35,428.39 107.92,418.81C111.08,410.39 113.79,404.41 116.08,400.88C117.09,399.3 117.8,398.48 118.14,398.44C118.18,398.71 117.88,399.6 117.2,401.18C112.09,412.53 108.82,421.7 107.32,428.69C106.72,431.47 106.41,433.98 106.41,436.24C106.41,439.36 106.98,441.73 108.14,443.27C109.01,444.59 109.95,445.11 110.89,444.92C112.84,444.51 114.87,442.37 116.9,438.49Z" style="fill:rgb(0,162,181);"/>
                    </g>
                    <g id="path63" transform="matrix(1.09798,0,0,1.09798,48.9935,114.434)">
                        <path d="M472.8,350.6C472.99,350.11 473.22,349.82 473.4,349.66C473.56,349.55 473.66,349.59 473.7,349.78C473.78,349.96 473.78,350.3 473.7,350.79C473.26,354.66 472.12,358.12 470.4,361.2C468.67,364.24 466.79,365.78 464.76,365.78C462.51,365.82 460.81,364.69 459.65,362.29C458.52,359.92 458,356.72 458.14,352.7C458.33,347.74 460.25,340.5 463.82,330.91C466.98,322.49 469.68,316.52 471.98,312.99C472.99,311.41 473.7,310.58 474.04,310.54C474.08,310.8 473.78,311.71 473.1,313.29C468,324.63 464.72,333.8 463.22,340.8C462.62,343.58 462.32,346.09 462.32,348.35C462.32,351.46 462.88,353.84 464.05,355.37C464.91,356.69 465.85,357.21 466.79,357.03C468.75,356.62 470.78,354.47 472.8,350.6Z" style="fill:rgb(0,162,181);"/>
                    </g>
                    <g id="path64" transform="matrix(1.09798,0,0,1.09798,48.9935,114.434)">
                        <path d="M75.26,406.61C75.02,406.85 74.84,407.03 74.66,407.09C74.48,407.15 74.43,407.08 74.46,406.98C74.44,406.81 74.52,406.56 74.71,406.27C78.32,399.88 81.52,397.18 84.36,398.16C87.34,399.2 87.96,402.24 86.22,407.24C84.09,413.38 80.07,419.23 74.18,424.74C72.71,426.1 71.88,426.76 71.69,426.74C71.66,426.73 71.62,426.72 71.65,426.65C71.76,426.32 72.33,425.49 73.41,424.08C78.16,417.85 81.01,413.31 81.99,410.5C83.32,406.67 82.97,404.36 80.9,403.64C79.7,403.23 77.8,404.23 75.26,406.61Z" style="fill:rgb(0,162,181);"/>
                    </g>
                    <g id="path65" transform="matrix(1.09798,0,0,1.09798,48.9935,114.434)">
                        <path d="M289.87,484.41C290.02,484.11 290.14,483.89 290.28,483.78C290.44,483.66 290.51,483.7 290.51,483.82C290.58,483.97 290.58,484.23 290.51,484.57C289.2,491.79 287.05,495.39 284.04,495.39C280.89,495.39 279.32,492.72 279.32,487.42C279.32,480.92 281.19,474.08 284.95,466.95C285.89,465.18 286.45,464.27 286.64,464.24C286.68,464.24 286.72,464.24 286.72,464.31C286.72,464.65 286.45,465.62 285.89,467.32C283.45,474.76 282.24,479.99 282.24,482.95C282.24,487.01 283.33,489.08 285.51,489.08C286.79,489.08 288.26,487.5 289.87,484.41Z" style="fill:rgb(0,162,181);"/>
                    </g>
                    <g id="path66" transform="matrix(1.09798,0,0,1.09798,48.9935,114.434)">
                        <path d="M256.69,464.69C254.52,469.73 250.01,474.38 243.2,478.63C234.89,483.82 223.77,489.01 209.83,494.18C208.6,494.64 207.76,494.86 207.31,494.86C207.13,494.86 207.05,494.79 207.05,494.71C207.05,494.41 207.73,493.81 209.16,492.94C211.67,491.33 217.8,487.84 227.57,482.5C235.99,477.91 241.7,474.46 244.66,472.17C247.56,470.18 251.02,467.35 255,463.79C256.72,461.46 257.75,460.29 258.08,460.29C258.19,460.29 258.23,460.33 258.23,460.44C258.23,460.97 257.75,462.4 256.69,464.69Z" style="fill:rgb(0,162,181);"/>
                    </g>
                    <g id="path67" transform="matrix(1.09798,0,0,1.09798,48.9935,114.434)">
                        <path d="M272.54,432.52C272.54,433.16 272.36,433.98 272.02,435.04C271.58,436.39 271.09,437.11 270.48,437.11C270.25,437.11 269.69,436.58 268.87,435.53C268.04,434.47 267.17,433.95 266.31,433.95C264.36,433.95 262.56,438.58 260.86,447.81C260.15,451.91 259.32,456.23 258.45,460.71C257.82,461.83 257.3,462.4 256.84,462.4C256.46,462.4 256.24,461.91 256.24,460.85C256.24,459.17 255.34,455.33 253.46,449.36C251.58,443.12 250.23,440.03 249.52,440.03C248.99,440.03 248.61,440.19 248.5,440.52C248.35,440.87 247.9,441.05 247.14,441.05C246.32,441.05 245.23,440.41 243.91,439.21C242.56,437.97 241.88,436.99 241.88,436.28C241.88,435.94 242.44,434.82 243.58,432.93C244.71,431.06 245.41,430.12 245.68,430.12C248.42,430.12 250.9,431.73 253.08,435C255.27,438.23 256.77,442.48 257.67,447.74C257.75,448.26 257.78,448.61 257.78,448.68C257.89,448.83 257.96,448.83 258.01,448.68C258.08,448.61 258.19,448.26 258.38,447.74C258.83,444.59 259.89,439.92 261.61,433.69C263.45,429.25 265.48,427.04 267.7,427.04C268.83,427.04 269.95,427.79 271.09,429.29C272.06,430.61 272.54,431.69 272.54,432.52Z" style="fill:rgb(0,162,181);"/>
                    </g>
                    <g id="path68" transform="matrix(1.09798,0,0,1.09798,48.9935,114.434)">
                        <path d="M71.43,75.79C89.88,68.92 109.12,61.78 129.22,54.34C130.01,54.08 130.47,53.96 130.62,54.08C130.84,54.22 130.76,54.64 130.47,55.32C129.61,57.45 128.89,58.77 128.37,59.18C111.49,65.42 91.69,73.13 68.95,82.34C69.44,80.3 70.27,78.13 71.43,75.79Z" style="fill:rgb(0,162,181);"/>
                    </g>
                    <g id="path69" transform="matrix(1.09798,0,0,1.09798,48.9935,114.434)">
                        <path d="M102.36,108.94C102.17,108.82 102.17,108.53 102.36,108.07L107.02,98.46C107.32,97.85 107.65,97.59 107.99,97.59C108.49,97.59 110.59,98.83 114.31,101.39C118.03,103.94 119.87,105.45 119.87,105.85C119.87,107.55 118.25,111.01 114.94,116.3C114.57,116.98 114.16,117.16 113.7,116.83C110.06,114.01 106.27,111.41 102.36,108.94Z" style="fill:rgb(255,176,0);"/>
                    </g>
                    <g id="path70" transform="matrix(1.09798,0,0,1.09798,48.9935,114.434)">
                        <path d="M217.53,137.98C217.34,137.87 217.34,137.57 217.53,137.12L222.2,127.5C222.5,126.9 222.83,126.64 223.17,126.64C223.66,126.64 225.76,127.88 229.49,130.43C233.21,132.98 235.05,134.49 235.05,134.9C235.05,136.6 233.43,140.06 230.12,145.35C229.75,146.02 229.33,146.21 228.88,145.88C225.24,143.06 221.45,140.46 217.53,137.98Z" style="fill:rgb(255,176,0);"/>
                    </g>
                    <g id="path8" transform="matrix(0.24,0,0,0.24,0,0)">
                        <path d="M1019.16,600.561C998.388,589.765 987.866,578.419 987.866,566.57C987.866,552.296 994.591,539.212 1007.63,527.317C1020.9,515.468 1031.88,511.031 1040.66,514.279C1048.03,516.841 1051.68,524.755 1051.68,538.023C1051.68,549.872 1049.26,563.276 1044.27,578.099C1054.75,584.092 1061.48,589.216 1064.04,593.379C1064.04,599.052 1059.37,608.476 1049.95,621.926C1047.38,617.763 1040.98,612.639 1030.82,606.417C1019.16,622.567 1004.38,637.389 986.539,650.611C966.226,665.571 947.515,676.916 930.451,684.465C927.019,686.204 907.256,693.752 871.526,707.019C865.853,709.078 862.193,710.13 860.317,710.13C859.448,710.13 859.128,709.718 859.128,709.398C859.128,708.026 862.193,705.281 868.415,701.346C894.904,685.655 921.347,669.871 947.972,653.905C979.814,634.644 1003.56,616.894 1019.16,600.561ZM1031.88,571.557C1033.93,565.152 1034.3,558.61 1033.25,552.113C1031.88,544.885 1028.63,541.454 1023.46,541.454C1021.08,541.454 1017.65,542.643 1013.49,544.885C1009.23,547.31 1006.99,549.551 1006.99,551.793C1006.99,556.917 1015.41,563.642 1031.88,571.557Z" style="fill:rgb(0,162,181);"/>
                    </g>
                    <g id="path72" transform="matrix(1.09798,0,0,1.09798,48.9935,114.434)">
                        <path d="M231.29,58.5C231.29,60.42 230.84,62.42 230.01,64.44C228.88,67.08 227.46,68.43 225.69,68.43C222.91,68.43 220.92,66.51 219.75,62.71C218.44,67.6 216.03,70.05 212.5,70.05C211.19,70.05 210.02,69.37 209.04,68.06C207.95,66.47 207.39,64.44 207.39,61.89L207.39,55.88C207.39,55.39 207.05,55.05 206.38,54.86C205.7,54.64 205.4,54.15 205.4,53.32C205.4,51.97 205.96,50.69 207.09,49.41C208.1,48.29 208.89,47.72 209.42,47.72C210.09,47.72 210.47,49.04 210.47,51.71C210.47,53.06 210.36,54.22 210.14,55.13C209.91,56.07 209.79,56.89 209.79,57.57C209.79,59 210.05,60.35 210.66,61.66C211.33,63.17 212.2,63.95 213.21,63.95C214.53,63.95 215.77,63.36 216.94,62.15C218.06,60.95 218.67,59.56 218.67,57.94C218.67,57.01 218.4,55.42 217.83,53.17C217.31,50.91 217.04,49.53 217.04,48.96C217.04,48.48 217.27,47.72 217.76,46.67C218.25,45.62 218.62,45.09 218.89,45.09C219.3,45.09 219.91,46.6 220.58,49.57C221.29,52.54 221.67,54.75 221.67,56.18C221.67,60.27 223.25,62.34 226.44,62.34C227.79,62.34 228.66,61.63 229,60.27C226.25,55.46 224.9,51.82 224.9,49.27C224.9,47.8 225.28,46.52 225.99,45.39C226.48,44.6 226.81,44.19 227.01,44.15C227.23,44.15 227.34,44.64 227.46,45.62C227.6,46.97 227.83,48.1 228.13,48.96C228.17,49.08 228.84,50.77 230.08,54.04C230.88,55.99 231.29,57.49 231.29,58.5Z" style="fill:rgb(0,162,181);"/>
                    </g>
                    <g id="path73" transform="matrix(1.09798,0,0,1.09798,48.9935,114.434)">
                        <path d="M269.36,122.51C278.9,119.12 289.23,115.48 300.39,111.5C301.19,111.23 301.63,111.11 301.78,111.23C301.97,111.38 301.94,111.79 301.63,112.47C300.73,114.61 300.05,115.92 299.49,116.34C290.1,119.61 279.24,123.93 266.88,129.27C267.4,127.2 268.22,124.94 269.36,122.51Z" style="fill:rgb(0,162,181);"/>
                    </g>
                    <g id="path9" transform="matrix(0.24,0,0,0.24,0,0)">
                        <path d="M1249,569.635C1228.18,558.838 1217.71,547.493 1217.71,535.598C1217.71,521.324 1224.43,508.286 1237.52,496.391C1250.74,484.542 1261.77,480.059 1270.5,483.353C1277.91,485.914 1281.53,493.829 1281.53,507.096C1281.53,518.945 1279.1,532.35 1274.12,547.127C1284.64,553.165 1291.32,558.289 1293.88,562.407C1293.88,568.08 1289.26,577.55 1279.79,590.954C1277.23,586.837 1270.87,581.713 1260.71,575.491C1249,591.64 1234.27,606.417 1216.34,619.684C1196.07,634.644 1177.31,645.99 1160.29,653.539C1156.86,655.277 1137.1,662.826 1101.37,676.047C1095.7,678.152 1092.08,679.158 1090.16,679.158C1089.29,679.158 1088.97,678.792 1088.97,678.472C1088.97,677.099 1092.08,674.309 1098.26,670.374C1124.7,654.728 1151.19,638.945 1177.86,622.933C1209.66,603.672 1233.4,585.967 1249,569.635ZM1261.77,540.584C1263.78,534.225 1264.19,527.683 1263.14,521.141C1261.77,513.959 1258.47,510.527 1253.3,510.527C1250.92,510.527 1247.49,511.717 1243.33,513.959C1239.07,516.338 1236.83,518.579 1236.83,520.821C1236.83,525.991 1245.25,532.67 1261.77,540.584Z" style="fill:rgb(0,162,181);"/>
                    </g>
                    <g id="path75" transform="matrix(1.09798,0,0,1.09798,48.9935,114.434)">
                        <path d="M255.64,36.82C262.25,40.81 265.56,43.25 265.56,44.15C265.56,45.81 263.91,49.27 260.64,54.56C260.22,55.24 259.81,55.42 259.4,55.09C255.71,52.27 251.92,49.67 248.01,47.24C247.82,47.08 247.82,46.79 248.01,46.33L252.71,36.75C249.4,34.34 246.06,32.05 242.75,29.91C242.56,29.76 242.56,29.46 242.75,29.05L247.41,19.43C247.71,18.82 248.05,18.56 248.38,18.56C248.87,18.56 250.98,19.8 254.7,22.35C258.42,24.92 260.27,26.38 260.27,26.83C260.27,28.41 258.72,31.72 255.64,36.82Z" style="fill:rgb(255,176,0);"/>
                    </g>
                    <g id="path76" transform="matrix(1.09798,0,0,1.09798,48.9935,114.434)">
                        <path d="M328.04,99.15L332.06,91.58C332.38,90.98 332.7,90.73 333.03,90.74C333.52,90.76 335.58,92.07 339.21,94.76C342.83,97.44 344.66,99 344.65,99.42C344.59,101.11 342.82,104.51 339.37,109.69C338.93,110.31 338.51,110.45 338.11,110.18C334.96,107.66 331.41,105.02 327.44,102.21C325.95,105.28 324.51,107.82 323.11,109.95C322.71,110.61 322.3,110.79 321.85,110.44C318.31,107.49 314.61,104.77 310.79,102.16C310.57,102.03 310.58,101.74 310.82,101.29L315.81,91.84C316.13,91.25 316.47,90.96 316.82,90.97C317.26,90.99 319,92.1 322.04,94.31C325.12,96.52 327.09,98.13 328.04,99.15Z" style="fill:rgb(255,176,0);"/>
                    </g>
                    <g id="path77" transform="matrix(1.09798,0,0,1.09798,48.9935,114.434)">
                        <path d="M367.73,105.33C367.54,105.22 367.54,104.92 367.73,104.47L372.4,94.84C372.7,94.24 373.03,93.98 373.37,93.98C373.86,93.98 375.97,95.22 379.69,97.78C383.4,100.33 385.25,101.83 385.25,102.25C385.25,103.94 383.63,107.39 380.32,112.7C379.95,113.37 379.53,113.56 379.08,113.22C375.44,110.4 371.64,107.81 367.73,105.33Z" style="fill:rgb(255,176,0);"/>
                    </g>
                    <g id="path78" transform="matrix(1.09798,0,0,1.09798,48.9935,114.434)">
                        <path d="M408.92,121.45C408.73,121.34 408.73,121.04 408.92,120.59L413.58,110.97C413.88,110.36 414.22,110.1 414.56,110.1C415.04,110.1 417.15,111.34 420.87,113.89C424.59,116.45 426.43,117.96 426.43,118.37C426.43,120.06 424.82,123.52 421.51,128.82C421.13,129.49 420.72,129.68 420.26,129.34C416.62,126.53 412.83,123.93 408.92,121.45Z" style="fill:rgb(255,176,0);"/>
                    </g>
                    <g id="path79" transform="matrix(1.09798,0,0,1.09798,48.9935,114.434)">
                        <path d="M443.49,110.7C450.1,114.69 453.41,117.13 453.41,118.03C453.41,119.68 451.76,123.14 448.49,128.44C448.07,129.12 447.66,129.31 447.25,128.96C443.56,126.15 439.77,123.56 435.87,121.11C435.68,120.96 435.68,120.66 435.87,120.21L440.56,110.63C437.25,108.23 433.91,105.93 430.6,103.79C430.42,103.64 430.42,103.34 430.6,102.93L435.26,93.3C435.56,92.71 435.9,92.44 436.24,92.44C436.73,92.44 438.83,93.68 442.55,96.24C446.27,98.79 448.11,100.26 448.11,100.71C448.11,102.29 446.57,105.59 443.49,110.7Z" style="fill:rgb(255,176,0);"/>
                    </g>
                    <g id="path80" transform="matrix(1.09798,0,0,1.09798,48.9935,114.434)">
                        <path d="M150.31,183.57C151.77,183.57 153.84,184.58 156.51,186.69C159.18,188.76 160.6,190.56 160.86,192.06C160.9,192.47 160.57,193.49 159.81,195.1C159.1,196.76 158.57,197.62 158.27,197.74C155.9,198.41 153.5,199.05 151.09,199.69C148.13,200.66 146.06,201.83 144.85,203.14C148.21,213.21 149.89,223.18 149.89,233.02C149.89,235.92 149.55,238.84 148.92,241.85C148.66,242.86 148.47,243.39 148.31,243.47C148.05,243.47 147.9,241.74 147.9,238.32C147.9,232.65 147.04,225.8 145.39,217.8C143.73,209.8 142.91,205.21 142.91,204.01C142.91,200.07 144.03,197.13 146.25,195.29C147.34,194.39 149.37,193.53 152.33,192.62C151.13,191.42 149.97,190.82 148.84,190.82C148.28,190.82 147.53,191.46 146.55,192.74C145.57,194.02 145.01,194.65 144.85,194.65C144.64,194.65 144.56,194.13 144.64,193.04C145.35,186.72 147.23,183.57 150.31,183.57Z" style="fill:rgb(0,162,181);"/>
                    </g>
                    <g id="path81" transform="matrix(1.09798,0,0,1.09798,48.9935,114.434)">
                        <path d="M7.4,226.22C8.86,226.22 10.94,227.23 13.6,229.34C16.27,231.41 17.7,233.21 17.96,234.71C18,235.13 17.66,236.14 16.9,237.75C16.19,239.41 15.67,240.27 15.36,240.39C13,241.06 10.59,241.7 8.19,242.34C5.22,243.31 3.15,244.48 1.95,245.8C5.29,255.87 6.99,265.83 6.99,275.67C6.99,278.57 6.65,281.49 6.01,284.5C5.75,285.52 5.56,286.05 5.41,286.12C5.15,286.12 4.99,284.39 4.99,280.97C4.99,275.3 4.13,268.45 2.48,260.45C0.82,252.45 0,247.86 0,246.66C0,242.72 1.13,239.78 3.34,237.94C4.43,237.04 6.46,236.18 9.43,235.27C8.23,234.07 7.06,233.47 5.94,233.47C5.37,233.47 4.62,234.11 3.65,235.39C2.67,236.67 2.1,237.3 1.95,237.3C1.73,237.3 1.65,236.78 1.73,235.69C2.44,229.38 4.31,226.22 7.4,226.22Z" style="fill:rgb(0,162,181);"/>
                    </g>
                    <g id="path82" transform="matrix(1.09798,0,0,1.09798,48.9935,114.434)">
                        <path d="M53.81,193.9C67.41,188.94 81.84,183.68 97.1,178.08C97.88,177.82 98.34,177.71 98.49,177.82C98.67,177.97 98.64,178.38 98.34,179.06C97.44,181.2 96.76,182.52 96.2,182.93C83.38,187.55 68.43,193.41 51.33,200.52C51.86,198.48 52.68,196.31 53.81,193.9Z" style="fill:rgb(0,162,181);"/>
                    </g>
                    <g id="path83" transform="matrix(1.09798,0,0,1.09798,48.9935,114.434)">
                        <path d="M86.24,223.4C86.24,225.32 85.79,227.3 84.96,229.34C83.83,231.97 82.4,233.32 80.64,233.32C77.86,233.32 75.87,231.41 74.7,227.61C73.39,232.49 70.98,234.94 67.45,234.94C66.14,234.94 64.97,234.26 63.99,232.95C62.9,231.37 62.34,229.34 62.34,226.78L62.34,220.77C62.34,220.28 62,219.94 61.33,219.75C60.65,219.53 60.35,219.04 60.35,218.21C60.35,216.86 60.91,215.59 62.04,214.31C63.05,213.18 63.85,212.62 64.37,212.62C65.04,212.62 65.42,213.93 65.42,216.6C65.42,217.95 65.3,219.12 65.08,220.01C64.86,220.96 64.74,221.78 64.74,222.46C64.74,223.89 65,225.24 65.6,226.56C66.28,228.06 67.15,228.85 68.16,228.85C69.48,228.85 70.72,228.25 71.88,227.04C73.01,225.85 73.61,224.45 73.61,222.84C73.61,221.9 73.34,220.32 72.78,218.06C72.26,215.81 72,214.42 72,213.86C72,213.37 72.22,212.62 72.71,211.57C73.2,210.51 73.57,209.98 73.83,209.98C74.25,209.98 74.85,211.48 75.53,214.45C76.24,217.43 76.62,219.64 76.62,221.07C76.62,225.17 78.2,227.23 81.39,227.23C82.74,227.23 83.6,226.52 83.95,225.17C81.2,220.36 79.85,216.71 79.85,214.16C79.85,212.69 80.23,211.41 80.94,210.29C81.43,209.5 81.77,209.09 81.96,209.05C82.18,209.05 82.29,209.53 82.4,210.51C82.55,211.87 82.78,212.99 83.08,213.86C83.11,213.97 83.79,215.66 85.03,218.93C85.82,220.88 86.24,222.39 86.24,223.4Z" style="fill:rgb(0,162,181);"/>
                    </g>
                    <g id="path84" transform="matrix(1.09798,0,0,1.09798,48.9935,114.434)">
                        <path d="M118.69,265.88C132.29,260.92 146.71,255.66 161.97,250.06C162.76,249.8 163.21,249.68 163.37,249.8C163.55,249.95 163.51,250.36 163.21,251.04C162.32,253.18 161.64,254.49 161.08,254.91C148.26,259.53 133.3,265.39 116.21,272.49C116.73,270.46 117.55,268.28 118.69,265.88Z" style="fill:rgb(0,162,181);"/>
                    </g>
                    <g id="path85" transform="matrix(1.09798,0,0,1.09798,48.9935,114.434)">
                        <path d="M47.05,316.67C56.59,313.29 66.92,309.64 78.08,305.66C78.87,305.4 79.32,305.28 79.47,305.4C79.67,305.54 79.62,305.96 79.32,306.64C78.42,308.78 77.75,310.09 77.18,310.51C67.78,313.77 56.93,318.09 44.57,323.44C45.09,321.36 45.92,319.11 47.05,316.67Z" style="fill:rgb(0,162,181);"/>
                    </g>
                    <g id="path86" transform="matrix(1.09798,0,0,1.09798,48.9935,114.434)">
                        <path d="M85.86,334.07C85.86,335.99 85.41,337.98 84.58,340.01C83.46,342.63 82.03,343.99 80.26,343.99C77.48,343.99 75.49,342.07 74.32,338.28C73.01,343.16 70.6,345.6 67.07,345.6C65.76,345.6 64.59,344.92 63.62,343.61C62.52,342.04 61.96,340.01 61.96,337.45L61.96,331.44C61.96,330.95 61.63,330.61 60.95,330.42C60.27,330.2 59.97,329.71 59.97,328.88C59.97,327.53 60.53,326.25 61.66,324.98C62.68,323.84 63.46,323.28 63.99,323.28C64.67,323.28 65.04,324.6 65.04,327.27C65.04,328.62 64.93,329.78 64.71,330.68C64.48,331.62 64.37,332.45 64.37,333.13C64.37,334.56 64.63,335.91 65.23,337.22C65.91,338.73 66.77,339.52 67.78,339.52C69.1,339.52 70.34,338.91 71.51,337.72C72.64,336.51 73.24,335.12 73.24,333.51C73.24,332.56 72.97,330.99 72.41,328.73C71.88,326.48 71.62,325.08 71.62,324.52C71.62,324.03 71.84,323.28 72.33,322.23C72.82,321.18 73.2,320.65 73.46,320.65C73.87,320.65 74.48,322.16 75.16,325.12C75.87,328.09 76.24,330.31 76.24,331.74C76.24,335.83 77.82,337.9 81.01,337.9C82.36,337.9 83.23,337.19 83.57,335.83C80.82,331.03 79.47,327.38 79.47,324.82C79.47,323.35 79.85,322.08 80.56,320.96C81.05,320.16 81.39,319.75 81.58,319.71C81.8,319.71 81.92,320.2 82.03,321.18C82.18,322.53 82.4,323.65 82.71,324.52C82.74,324.63 83.42,326.33 84.65,329.59C85.45,331.55 85.86,333.05 85.86,334.07Z" style="fill:rgb(0,162,181);"/>
                    </g>
                    <g id="path87" transform="matrix(1.09798,0,0,1.09798,48.9935,114.434)">
                        <path d="M103.41,393.06C117.01,388.1 131.44,382.84 146.7,377.24C147.49,376.98 147.94,376.87 148.09,376.98C148.28,377.14 148.24,377.54 147.94,378.22C147.04,380.37 146.36,381.68 145.8,382.09C132.98,386.72 118.03,392.57 100.93,399.68C101.45,397.65 102.29,395.47 103.41,393.06Z" style="fill:rgb(0,162,181);"/>
                    </g>
                    <g id="path10" transform="matrix(0.24,0,0,0.24,0,0)">
                        <path d="M1184.36,1190.08C1184.36,1202.66 1180.06,1214.65 1171.5,1226C1162.4,1238.39 1151.56,1244.57 1139.34,1244.57C1126.62,1244.57 1120.26,1238.39 1120.26,1226C1120.26,1217.08 1125.25,1203.99 1135.22,1186.97C1145.33,1169.77 1153.98,1161.4 1161.16,1161.4C1167.34,1161.4 1172.87,1164.1 1177.5,1169.45C1181.98,1174.99 1184.36,1181.85 1184.36,1190.08ZM1173.38,1204.17C1173.38,1192.64 1165.28,1186.84 1149.5,1186.84C1147.26,1186.84 1143.46,1190.4 1138.15,1197.63C1132.8,1205.04 1130.24,1210.03 1130.24,1212.96C1132.16,1217.08 1137.97,1219.13 1148.12,1219.13C1164.96,1219.13 1173.38,1214.15 1173.38,1204.17Z" style="fill:rgb(0,162,181);"/>
                    </g>
                    <g id="path89" transform="matrix(1.09798,0,0,1.09798,48.9935,114.434)">
                        <path d="M290.15,240.97C289.49,238.54 289.76,235.55 290.87,231.93C292.03,228.19 293.93,224.71 296.51,221.59C297.53,220.34 298.16,219.66 298.42,219.59C298.45,219.58 298.46,219.62 298.47,219.66C298.53,219.87 298.16,220.67 297.45,222.15C293.72,229.37 292.12,233.93 292.64,235.85C293.15,237.7 294.27,238.37 295.98,237.9C296.88,237.66 297.68,237.16 298.3,236.45C298.74,235.94 299.05,235.62 299.19,235.55C299.28,235.6 299.44,235.63 299.6,235.63C299.59,235.86 299.63,236.36 299.71,237.2C299.93,241.42 298.51,243.91 295.39,244.76C292.77,245.47 291.03,244.2 290.15,240.97Z" style="fill:rgb(0,162,181);"/>
                    </g>
                    <g id="path90" transform="matrix(1.09798,0,0,1.09798,48.9935,114.434)">
                        <path d="M339.79,305.39C339.23,306.55 338.81,307.27 338.44,307.53C338.18,307.75 337.99,307.6 337.95,307.08C337.95,306.55 338.06,305.8 338.36,304.86C338.63,303.92 338.96,302.23 339.42,299.71C339.98,290.92 336.15,282.84 327.81,275.55C327.31,275.13 327.24,274.57 327.62,273.94L329.79,270.06C329.98,269.73 330.33,269.73 330.73,270.06C338.44,275.77 342.27,283.63 342.27,293.55C342.27,297.91 341.45,301.85 339.79,305.39Z" style="fill:rgb(0,162,181);"/>
                    </g>
                    <g id="path91" transform="matrix(1.09798,0,0,1.09798,48.9935,114.434)">
                        <path d="M308.66,202.55C318.21,199.16 328.54,195.52 339.7,191.54C340.49,191.27 340.94,191.16 341.09,191.27C341.28,191.42 341.24,191.83 340.94,192.51C340.04,194.65 339.36,195.96 338.8,196.38C329.4,199.65 318.55,203.97 306.19,209.31C306.71,207.24 307.53,204.99 308.66,202.55Z" style="fill:rgb(0,162,181);"/>
                    </g>
                    <g id="path92" transform="matrix(1.09798,0,0,1.09798,48.9935,114.434)">
                        <path d="M343.16,225.17C343.16,227.08 342.71,229.08 341.88,231.1C340.75,233.73 339.33,235.09 337.56,235.09C334.78,235.09 332.79,233.17 331.62,229.38C330.31,234.26 327.9,236.7 324.37,236.7C323.06,236.7 321.89,236.02 320.91,234.71C319.82,233.14 319.26,231.1 319.26,228.54L319.26,222.53C319.26,222.04 318.92,221.71 318.25,221.52C317.57,221.29 317.27,220.81 317.27,219.98C317.27,218.63 317.83,217.35 318.96,216.08C319.97,214.94 320.76,214.38 321.29,214.38C321.96,214.38 322.34,215.7 322.34,218.37C322.34,219.72 322.23,220.88 322.01,221.78C321.78,222.72 321.66,223.55 321.66,224.23C321.66,225.66 321.92,227.01 322.53,228.32C323.2,229.82 324.07,230.62 325.08,230.62C326.4,230.62 327.64,230.01 328.81,228.81C329.93,227.61 330.54,226.22 330.54,224.61C330.54,223.66 330.27,222.09 329.7,219.83C329.18,217.58 328.91,216.18 328.91,215.62C328.91,215.13 329.14,214.38 329.63,213.33C330.12,212.28 330.49,211.75 330.76,211.75C331.17,211.75 331.78,213.25 332.45,216.22C333.16,219.19 333.54,221.41 333.54,222.84C333.54,226.93 335.12,229 338.31,229C339.66,229 340.53,228.28 340.87,226.93C338.12,222.13 336.77,218.48 336.77,215.92C336.77,214.45 337.15,213.18 337.86,212.05C338.35,211.26 338.68,210.85 338.88,210.82C339.1,210.82 339.21,211.3 339.33,212.28C339.47,213.63 339.7,214.75 340,215.62C340.04,215.73 340.71,217.43 341.95,220.69C342.74,222.65 343.16,224.15 343.16,225.17Z" style="fill:rgb(0,162,181);"/>
                    </g>
                    <g id="path93" transform="matrix(1.09798,0,0,1.09798,48.9935,114.434)">
                        <path d="M493.99,285.78C489.11,290.18 482.84,292.39 475.13,292.39C472.72,292.39 470.78,291.75 469.27,290.51C467.77,289.28 467.02,287.69 467.02,285.78C467.02,282.4 468.4,279.01 471.27,275.63C474.04,272.66 476.86,269.66 479.68,266.69C480.28,266.05 480.09,265.56 479.19,265.23C477.09,264.48 474.83,264.13 472.42,264.13C471.11,264.13 469.68,264.48 468.1,265.23C467.77,265.37 467.54,265.41 467.42,265.3C467.35,265.23 467.35,264.96 467.51,264.59C468.48,262.22 469.5,260.64 470.51,259.89C471.75,258.91 473.63,258.42 476.18,258.42C481.9,258.42 484.75,259.81 484.75,262.59C484.75,264.7 482.91,267.66 479.22,271.54C476.67,274.2 474.08,276.87 471.45,279.54C470.36,281.01 469.8,282.24 469.8,283.3C469.8,285.63 472.42,286.83 477.68,286.83C482.53,286.83 487.8,285.97 493.4,284.32C494.97,283.86 495.76,283.75 495.76,283.94C495.76,284.13 495.16,284.76 493.99,285.78Z" style="fill:rgb(0,162,181);"/>
                    </g>
                    <g id="path94" transform="matrix(1.09798,0,0,1.09798,48.9935,114.434)">
                        <path d="M441.16,190.93C454.77,185.98 469.19,180.72 484.45,175.11C485.24,174.85 485.69,174.74 485.84,174.85C486.03,175 485.99,175.41 485.69,176.09C484.79,178.23 484.11,179.55 483.55,179.96C470.74,184.58 455.78,190.45 438.68,197.55C439.21,195.52 440.03,193.34 441.16,190.93Z" style="fill:rgb(0,162,181);"/>
                    </g>
                    <g id="path11" transform="matrix(0.24,0,0,0.24,0,0)">
                        <path d="M1422.48,1630.55C1401.66,1619.71 1391.19,1608.32 1391.19,1596.52C1391.19,1582.2 1397.91,1569.16 1411,1557.31C1424.22,1545.41 1435.2,1540.98 1443.94,1544.23C1451.39,1546.83 1454.96,1554.7 1454.96,1567.97C1454.96,1579.82 1452.58,1593.22 1447.6,1608C1458.07,1614.04 1464.8,1619.21 1467.36,1623.28C1467.36,1628.95 1462.74,1638.42 1453.27,1651.83C1450.66,1647.76 1444.35,1642.54 1434.19,1636.41C1422.48,1652.56 1407.7,1667.34 1389.82,1680.56C1369.5,1695.52 1350.79,1706.86 1333.77,1714.46C1330.34,1716.15 1310.58,1723.7 1274.8,1736.92C1269.13,1739.03 1265.52,1740.03 1263.64,1740.03C1262.77,1740.03 1262.4,1739.71 1262.4,1739.35C1262.4,1737.97 1265.52,1735.23 1271.69,1731.25C1298.18,1715.65 1324.67,1699.82 1351.34,1683.81C1383.09,1664.55 1406.84,1646.89 1422.48,1630.55ZM1435.2,1601.46C1437.26,1595.14 1437.62,1588.6 1436.57,1582.01C1435.2,1574.83 1431.95,1571.4 1426.78,1571.4C1424.36,1571.4 1420.92,1572.59 1416.81,1574.83C1412.51,1577.21 1410.27,1579.45 1410.27,1581.69C1410.27,1586.86 1418.68,1593.54 1435.2,1601.46Z" style="fill:rgb(0,162,181);"/>
                    </g>
                    <g id="path96" transform="matrix(1.09798,0,0,1.09798,48.9935,114.434)">
                        <path d="M286.61,364.54C296.15,361.16 306.48,357.51 317.64,353.54C318.43,353.27 318.88,353.16 319.03,353.27C319.23,353.42 319.18,353.84 318.88,354.51C317.98,356.65 317.31,357.96 316.74,358.38C307.34,361.65 296.49,365.97 284.13,371.3C284.65,369.24 285.48,366.98 286.61,364.54Z" style="fill:rgb(0,162,181);"/>
                    </g>
                    <g id="path97" transform="matrix(1.09798,0,0,1.09798,48.9935,114.434)">
                        <path d="M298.59,380.85C298.4,380.74 298.4,380.44 298.59,379.99L303.25,370.37C303.55,369.76 303.88,369.5 304.23,369.5C304.72,369.5 306.82,370.74 310.54,373.3C314.26,375.86 316.1,377.36 316.1,377.77C316.1,379.46 314.49,382.92 311.18,388.22C310.8,388.9 310.39,389.08 309.94,388.74C306.29,385.93 302.5,383.33 298.59,380.85Z" style="fill:rgb(255,176,0);"/>
                    </g>
                    <g id="path98" transform="matrix(1.09798,0,0,1.09798,48.9935,114.434)">
                        <path d="M331.4,346.88C340.94,343.5 351.27,339.85 362.44,335.87C363.23,335.61 363.68,335.5 363.82,335.61C364.01,335.76 363.98,336.17 363.68,336.85C362.77,338.99 362.1,340.31 361.53,340.72C352.14,343.99 341.28,348.31 328.91,353.65C329.44,351.58 330.27,349.33 331.4,346.88Z" style="fill:rgb(0,162,181);"/>
                    </g>
                    <g id="path99" transform="matrix(1.09798,0,0,1.09798,48.9935,114.434)">
                        <path d="M350.52,365.56L354.28,357.86C354.58,357.25 354.89,356.99 355.22,356.99C355.71,356.99 357.81,358.23 361.53,360.79C365.25,363.34 367.13,364.85 367.13,365.25C367.13,366.95 365.48,370.41 362.21,375.7C361.79,376.34 361.39,376.49 360.97,376.23C357.74,373.82 354.1,371.3 350.03,368.64C348.65,371.76 347.29,374.35 345.97,376.53C345.6,377.21 345.19,377.4 344.73,377.05C341.09,374.24 337.3,371.65 333.39,369.17C333.16,369.05 333.16,368.75 333.39,368.3L338.05,358.68C338.35,358.08 338.68,357.78 339.02,357.78C339.47,357.78 341.24,358.83 344.36,360.93C347.52,363.04 349.54,364.58 350.52,365.56Z" style="fill:rgb(255,176,0);"/>
                    </g>
                    <g id="path12" transform="matrix(0.24,0,0,0.24,0,0)">
                        <path d="M2097.78,2086.3C2097.78,2098.84 2093.44,2110.87 2084.88,2122.22C2075.78,2134.62 2064.93,2140.75 2052.72,2140.75C2040,2140.75 2033.64,2134.62 2033.64,2122.22C2033.64,2113.25 2038.63,2100.21 2048.6,2083.2C2058.76,2065.99 2067.36,2057.57 2074.59,2057.57C2080.76,2057.57 2086.25,2060.32 2090.87,2065.67C2095.36,2071.16 2097.78,2078.03 2097.78,2086.3ZM2086.76,2100.4C2086.76,2088.87 2078.66,2083.01 2062.88,2083.01C2060.63,2083.01 2056.84,2086.63 2051.53,2093.81C2046.18,2101.26 2043.62,2106.21 2043.62,2109.18C2045.54,2113.25 2051.39,2115.31 2061.46,2115.31C2078.34,2115.31 2086.76,2110.37 2086.76,2100.4Z" style="fill:rgb(0,162,181);"/>
                    </g>
                    <g id="path101" transform="matrix(1.09798,0,0,1.09798,48.9935,114.434)">
                        <path d="M371.68,397.05C371.49,396.94 371.49,396.63 371.68,396.19L376.34,386.56C376.64,385.96 376.98,385.7 377.32,385.7C377.8,385.7 379.91,386.94 383.63,389.5C387.35,392.05 389.19,393.55 389.19,393.97C389.19,395.66 387.57,399.11 384.27,404.41C383.89,405.09 383.48,405.28 383.03,404.94C379.38,402.12 375.59,399.53 371.68,397.05Z" style="fill:rgb(255,176,0);"/>
                    </g>
                    <g id="path102" transform="matrix(1.09798,0,0,1.09798,48.9935,114.434)">
                        <path d="M411.85,277.36C421.4,273.98 431.73,270.34 442.89,266.35C443.68,266.09 444.13,265.97 444.28,266.09C444.47,266.24 444.43,266.65 444.13,267.33C443.23,269.47 442.55,270.79 441.99,271.2C432.6,274.47 421.73,278.79 409.37,284.13C409.9,282.06 410.72,279.81 411.85,277.36Z" style="fill:rgb(0,162,181);"/>
                    </g>
                    <g id="path103" transform="matrix(1.09798,0,0,1.09798,48.9935,114.434)">
                        <path d="M376.49,203.52L380.25,195.82C380.55,195.22 380.85,194.95 381.19,194.95C381.68,194.95 383.78,196.19 387.5,198.75C391.22,201.31 393.1,202.81 393.1,203.22C393.1,204.91 391.45,208.37 388.17,213.67C387.77,214.31 387.35,214.45 386.93,214.19C383.71,211.79 380.06,209.27 376,206.6C374.61,209.72 373.26,212.32 371.95,214.49C371.56,215.17 371.16,215.36 370.7,215.02C367.06,212.2 363.26,209.61 359.35,207.13C359.13,207.01 359.13,206.71 359.35,206.27L364.01,196.64C364.31,196.05 364.66,195.75 364.99,195.75C365.44,195.75 367.21,196.8 370.32,198.9C373.48,201 375.51,202.55 376.49,203.52Z" style="fill:rgb(255,176,0);"/>
                    </g>
                    <g id="path104" transform="matrix(1.09798,0,0,1.09798,48.9935,114.434)">
                        <path d="M310.54,12.89C310.54,15.41 309.49,18.23 307.46,21.42C305.35,24.73 302.61,27.58 299.3,29.91C297.99,30.85 297.2,31.34 296.94,31.34C296.9,31.34 296.9,31.3 296.9,31.26C296.9,31.04 297.47,30.36 298.55,29.12C304.04,23.15 306.78,19.17 306.78,17.17C306.78,15.25 305.88,14.31 304.11,14.31C303.18,14.31 302.27,14.58 301.49,15.1C300.92,15.48 300.54,15.71 300.39,15.74C300.32,15.67 300.17,15.59 300.02,15.55C300.09,15.33 300.17,14.84 300.32,14.01C301.22,9.88 303.25,7.86 306.48,7.86C309.19,7.86 310.54,9.54 310.54,12.89Z" style="fill:rgb(0,162,181);"/>
                    </g>
                    <g id="path105" transform="matrix(1.09798,0,0,1.09798,48.9935,114.434)">
                        <path d="M307.37,44.61C307.54,42.93 308.44,41.13 310.01,39.14C311.61,37.07 313.63,35.38 316,34.04C316.92,33.53 317.47,33.25 317.62,33.26C317.66,33.27 317.66,33.3 317.65,33.34C317.64,33.45 317.22,33.9 316.43,34.61C312.36,38.2 310.26,40.67 310.13,42.02C310,43.25 310.54,43.95 311.7,44.06C312.37,44.13 312.94,44.04 313.5,43.72C313.94,43.5 314.19,43.37 314.3,43.38C314.37,43.43 314.43,43.51 314.55,43.52C314.49,43.67 314.38,44 314.21,44.55C313.38,47.22 311.86,48.42 309.73,48.21C307.94,48.03 307.15,46.82 307.37,44.61Z" style="fill:rgb(0,162,181);"/>
                    </g>
                    <g id="path106" transform="matrix(1.09798,0,0,1.09798,48.9935,114.434)">
                        <path d="M124.57,364.32C124.38,364.2 124.38,363.91 124.57,363.45L129.22,353.84C129.53,353.23 129.87,352.97 130.2,352.97C130.69,352.97 132.79,354.21 136.51,356.76C140.24,359.32 142.07,360.83 142.07,361.23C142.07,362.93 140.46,366.39 137.16,371.68C136.78,372.36 136.37,372.54 135.92,372.21C132.27,369.39 128.47,366.8 124.57,364.32Z" style="fill:rgb(255,176,0);"/>
                    </g>
                    <g id="path107" transform="matrix(1.09798,0,0,1.09798,48.9935,114.434)">
                        <path d="M171.12,101.87C171.12,110.97 169.06,117.88 164.97,122.58C158.5,130.1 148.99,137.38 136.48,144.45C120.66,153.24 105.89,157.68 92.17,157.68C73.8,157.68 61.14,148.66 54.18,130.66C52.83,127.12 52.15,122.62 52.15,117.13C52.15,113.52 52.42,109.84 53.01,106.12C53.88,100.67 55.13,95.86 56.7,91.76C57.19,90.49 57.68,89.84 58.17,89.84C58.66,89.84 58.73,90.68 58.43,92.32C57.87,94.88 57.26,97.44 56.7,99.96C55.72,104.47 55.23,107.81 55.23,109.96C55.23,117.39 57.71,124.23 62.71,130.51C69.44,138.81 79.21,142.98 92.03,142.98C103.3,142.98 115.21,140.32 127.84,135.06C137.98,130.85 147.16,125.55 155.27,119.2C162.59,113.52 166.28,109.47 166.28,107.02C166.28,106.61 164.74,103.45 161.73,97.48C158.12,90.41 155.42,83.57 153.65,76.92C152.98,74.67 152.19,73.16 151.25,72.38C150.31,71.59 149.85,70.75 149.85,69.86C149.85,69.18 150.53,65.58 151.89,59C152.11,57.83 152.41,57.27 152.79,57.27C153.17,57.27 153.65,57.53 154.25,58.13C156.09,60.2 160.11,64.25 166.28,70.31C167.26,71.29 167.75,72.07 167.75,72.68C167.75,73.35 167.18,73.69 165.98,73.69C164.74,73.69 162.82,73.31 160.27,72.52C160.46,73.31 162.52,77.6 166.42,85.45C169.55,91.8 171.12,97.29 171.12,101.87Z" style="fill:rgb(255,176,0);"/>
                    </g>
                    <g id="path2" transform="matrix(0.24,0,0,0.24,0,0)">
                        <path d="M1319.73,817.915C1325.13,806.34 1332.86,790.923 1342.88,771.663C1345.21,768.552 1364.47,762.01 1400.7,751.991C1445.45,739.638 1483.24,726.142 1514.07,711.503C1516.4,710.725 1517.55,709.581 1517.55,708.026C1517.55,704.961 1507.94,690.275 1488.63,664.061C1467.04,631.671 1451.99,607.012 1443.53,590.039C1442.75,589.261 1442.38,588.484 1442.38,587.706C1438.49,576.177 1433.1,562.27 1426.19,546.074C1424.63,542.231 1421.57,538.755 1416.9,535.689C1413.83,534.912 1412.69,532.99 1413.47,529.879L1423.85,483.627C1425.41,475.895 1429.25,474.752 1435.43,480.15L1493.26,535.689C1500.99,543.375 1499.43,547.218 1488.63,547.218C1482.46,547.218 1473.99,546.074 1463.2,543.787C1463.98,546.074 1468.18,553.028 1475.92,564.603C1489.05,583.863 1502.13,603.535 1515.26,623.573C1529.9,648.278 1537.22,669.871 1537.22,688.354C1537.22,725.639 1526.1,755.65 1503.82,778.388C1523.08,781.178 1547.7,784.701 1577.71,789.001C1659.46,799.021 1725.02,804.053 1774.38,804.053C1786.69,804.053 1792.87,805.197 1792.87,807.53C1792.87,809.04 1792.09,810.961 1790.58,813.294L1767.43,859.546C1765.1,864.945 1762.03,867.644 1758.19,867.644C1683.34,867.644 1618.56,878.852 1563.85,901.224C1550.72,906.622 1516.04,923.961 1459.72,953.286C1421.15,972.546 1394.16,982.199 1378.75,982.199C1350.98,982.199 1330.16,975.612 1316.3,962.527C1304.72,950.953 1298.91,935.901 1298.91,917.419L1298.91,902.367C1270.41,923.183 1246.9,937.457 1228.37,945.189L1226.04,946.332C1226.04,958.684 1222.97,974.468 1216.79,993.774C1208.33,1019.99 1197.12,1041.17 1183.26,1057.37C1149.31,1096.71 1112.67,1131.02 1073.37,1160.35C1014.77,1205.04 963.481,1227.41 919.517,1227.41C883.283,1227.41 855.102,1213.55 835.064,1185.78C817.313,1162.63 808.438,1132.94 808.438,1096.71C808.438,1049.68 818.091,1001.87 837.397,953.286C842.018,942.489 845.083,937.091 846.638,937.091C847.416,937.823 847.782,939.012 847.782,940.522C847.782,944.411 847.004,949.397 845.495,955.574C831.587,1004.16 824.633,1041.17 824.633,1066.61C824.633,1088.98 830.443,1108.65 842.018,1125.62C858.991,1148.77 886.349,1160.35 924.137,1160.35C957.305,1160.35 997.381,1146.07 1044.46,1117.53C1082.25,1095.15 1118.48,1067.38 1153.16,1034.22C1184.04,1004.16 1199.45,984.121 1199.45,974.102C1199.45,967.148 1198.31,959.828 1195.98,952.097C1182.85,956.717 1163.59,959.05 1138.15,959.05C1085.68,959.05 1059.46,940.934 1059.46,904.701C1059.46,876.931 1068.34,852.227 1086.09,830.633C1102.28,811.373 1119.62,801.72 1138.15,801.72C1152.01,801.72 1167.06,810.229 1183.26,827.156C1197.12,843.351 1209.84,863.023 1221.41,886.172C1222.19,886.172 1224.53,885.395 1228.37,883.839C1251.52,874.598 1278.88,859.546 1310.49,838.731C1315.11,835.665 1318.59,834.11 1320.92,834.11C1323.98,834.11 1325.54,836.443 1325.54,841.064C1325.54,843.351 1325.13,847.606 1324.39,853.782C1323.62,859.958 1323.21,864.579 1323.21,867.644C1323.21,877.709 1327.83,887.728 1337.11,897.747C1347.91,909.321 1361.77,915.086 1378.75,915.086C1411.91,915.086 1467.45,893.492 1545.32,850.305C1475.92,839.508 1406.88,831.411 1338.26,826.012C1325.13,824.457 1318.59,822.535 1318.59,820.248C1318.59,819.47 1319,818.693 1319.73,817.915ZM1166.33,892.852C1150.55,872.219 1136.09,862.063 1122.51,862.063C1102.88,862.063 1093.13,867.232 1093.13,877.343C1093.13,890.427 1106.68,896.969 1133.99,896.969C1143.82,896.969 1154.62,895.597 1166.33,892.852Z" style="fill:rgb(255,176,0);"/>
                    </g>
                    <g id="path0" transform="matrix(0.24,0,0,0.24,0,0)">
                        <path d="M432.519,1788.43C440.204,1793.1 452.191,1795.39 468.386,1795.39C497.665,1795.39 533.898,1783.81 577.085,1760.71C575.576,1752.2 574.798,1744.1 574.798,1736.42C574.798,1679.32 602.568,1639.61 658.061,1617.24C665.015,1614.95 675.034,1610.7 688.164,1604.52L688.164,1586.04C688.164,1544.36 696.628,1505.07 713.6,1468.01C730.573,1431 748.69,1412.51 767.95,1412.51C781.08,1412.51 792.243,1423.68 801.53,1446.05C809.216,1465.31 813.104,1484.98 813.104,1505.07C813.104,1544.36 805.007,1574.83 788.812,1596.42C774.904,1617.24 748.69,1637.33 710.124,1656.59C710.124,1673.56 707.836,1682.02 703.17,1682.02C700.104,1682.02 697.771,1675.11 696.262,1661.21C690.085,1664.32 677.367,1670.08 658.061,1678.55C641.866,1684.72 627.226,1692.04 614.142,1700.55C601.79,1708.24 595.614,1713.27 595.614,1715.56C595.614,1722.51 599.091,1733.72 606.045,1749.13C636.879,1738.34 661.538,1732.94 680.066,1732.94C699.327,1732.94 714.378,1741.04 725.175,1757.23C736.749,1773.43 742.514,1794.61 742.514,1820.82C742.514,1842.42 737.893,1860.58 728.652,1875.22C718.633,1889.08 705.869,1896.04 690.451,1896.04C655.774,1896.04 624.161,1869.04 595.614,1815.06C543.185,1846.67 500.776,1862.5 468.386,1862.5C444.459,1862.5 425.931,1857.88 412.847,1848.59C393.541,1833.95 380.822,1807.74 374.646,1769.95C370.026,1746.03 365.405,1661.62 360.784,1516.59C356.164,1361.6 352.321,1270.24 349.21,1242.46C344.589,1196.17 335.714,1152.61 322.63,1111.76C322.63,1100.96 327.25,1084.77 336.492,1063.17C338.047,1057.78 339.557,1055.08 341.112,1055.08C342.668,1055.08 344.589,1057.37 346.922,1061.99C360.784,1088.98 371.581,1136.05 379.313,1203.12C383.933,1244.75 388.142,1341.56 392.031,1493.49C396.651,1638.47 399.717,1716.33 401.272,1727.13C406.67,1758.01 417.101,1778.41 432.519,1788.43ZM697.863,1829.93C707.653,1829.93 712.64,1827.05 712.64,1821.19C712.64,1813.96 706.967,1807.92 695.758,1803.12C682.903,1798.18 665.381,1797.45 643.559,1801.06C659.525,1820.32 677.779,1829.93 697.863,1829.93ZM789.315,1535.31C781.721,1496.78 769.551,1477.52 753.036,1477.52C744.481,1477.52 734.325,1488.69 722.064,1511.01C708.339,1537.55 701.843,1566.92 702.666,1599.77C713.829,1595.6 728.652,1588.42 747.043,1578.26C767.676,1566.92 780.531,1557.81 785.884,1550.59C789.498,1546.1 790.687,1540.98 789.315,1535.31Z" style="fill:rgb(255,176,0);"/>
                    </g>
                    <g id="path111" transform="matrix(1.09798,0,0,1.09798,48.9935,114.434)">
                        <path d="M244.66,147C244.66,142.38 243.91,138.47 242.41,135.36C242.41,133.36 243.73,129.27 246.36,123.1C246.7,122.32 247,121.94 247.23,121.94C247.52,121.94 247.86,122.35 248.28,123.18C249.06,124.83 250.9,129.42 253.84,136.9C256.88,144.67 258.68,149.52 259.21,151.37C259.59,152.72 259.81,153.77 259.81,154.45C259.81,156.66 257.67,155.35 253.46,150.54C253.05,150.09 252.82,150.39 252.82,151.51C252.82,152.98 253.42,162.3 254.62,179.43C255.83,196.61 256.43,206.45 256.43,208.97C256.43,220.43 254.66,230.43 251.2,238.92C250.45,240.72 249.85,242.04 249.36,242.91C248.68,243.92 248.28,244.03 248.12,243.21C247.98,242.3 248.09,240.5 248.42,237.75C248.87,234.22 249.1,229.64 249.1,223.96C249.1,221.45 248.35,209.16 246.88,187.06C245.41,164.97 244.66,151.63 244.66,147Z" style="fill:rgb(255,97,6);"/>
                    </g>
                    <g id="path1" transform="matrix(0.24,0,0,0.24,0,0)">
                        <path d="M2013.83,1195.02C2025.36,1202.76 2048.14,1206.6 2082.04,1206.6C2119.83,1206.6 2151.49,1196.58 2176.93,1176.54C2179.22,1174.99 2189.65,1164.19 2208.17,1144.15C2224.37,1126.4 2233.2,1117.53 2234.75,1117.53C2237.09,1117.53 2238.23,1119.86 2238.23,1124.48C2238.23,1125.99 2237.87,1128.32 2237.09,1131.39C2234.75,1139.9 2233.61,1147.58 2233.61,1154.54C2233.61,1182.31 2250.95,1196.17 2285.67,1196.17C2311.89,1196.17 2329.23,1190.04 2337.69,1177.68C2337.69,1170.73 2333.07,1159.93 2323.83,1145.3C2319.99,1138.34 2318.06,1131.8 2318.06,1125.62C2318.06,1122.56 2322.27,1106.73 2330.78,1078.18C2332.29,1073.56 2334.26,1071.27 2336.55,1071.27C2338.88,1071.27 2341.58,1074.7 2344.64,1081.66C2355.44,1104.03 2360.84,1125.26 2360.84,1145.3C2360.84,1183.86 2352.38,1213.92 2335.4,1235.51C2321.49,1254.04 2304.93,1263.28 2285.67,1263.28C2267.14,1263.28 2251.36,1258.66 2238.23,1249.42C2220.48,1237.85 2210.1,1218.95 2206.99,1192.74C2200.08,1207.38 2187.31,1222.79 2168.83,1238.99C2141.84,1262.14 2112.93,1273.71 2082.04,1273.71C2050.43,1273.71 2021.15,1269.46 1994.16,1260.95C1974.85,1254.82 1960.99,1247.86 1952.48,1240.13C1907.79,1270.24 1859.2,1285.24 1806.77,1285.24C1782.07,1285.24 1756.63,1274.44 1730.42,1252.85C1716.51,1241.32 1705.71,1228.56 1698.03,1214.7L1623.96,1245.94L1621.67,1247.09C1621.67,1260.22 1618.19,1276.41 1611.24,1295.67C1603.56,1321.11 1592.35,1342.34 1577.71,1359.31C1544.54,1397.83 1508.31,1432.19 1468.96,1462.24C1410.36,1506.99 1359.07,1529.36 1315.11,1529.36C1278.1,1529.36 1249.6,1515.45 1229.51,1487.68C1211.81,1463.8 1202.93,1433.7 1202.93,1397.46C1202.93,1351.21 1212.95,1303.4 1232.99,1254.04C1237.61,1244.02 1240.72,1238.99 1242.23,1238.99C1243.01,1238.99 1243.42,1239.77 1243.42,1241.32C1243.42,1245.16 1242.64,1250.56 1241.09,1257.52C1227.22,1306.1 1220.27,1342.7 1220.27,1367.41C1220.27,1390.51 1226.04,1410.18 1237.61,1426.38C1254.58,1449.53 1281.94,1461.1 1319.73,1461.1C1352.9,1461.1 1392.61,1447.19 1438.9,1419.42C1477.47,1396.32 1513.7,1368.14 1547.65,1335.02C1579.26,1304.91 1595.05,1284.88 1595.05,1274.86C1595.05,1267.9 1593.54,1260.58 1590.42,1252.85C1577.34,1257.52 1558.45,1259.8 1533.74,1259.8C1481.31,1259.8 1455.1,1241.69 1455.1,1205.45C1455.1,1177.68 1463.56,1153.39 1480.54,1132.58C1497.51,1112.49 1515.26,1102.47 1533.74,1102.47C1547.65,1102.47 1562.29,1111.35 1577.71,1129.1C1592.35,1144.52 1605.48,1163.78 1617.05,1186.93C1617.83,1186.93 1620.12,1186.56 1623.96,1185.78L1678.36,1162.63C1670.62,1141.04 1666.78,1119.08 1666.78,1096.71C1666.78,1063.54 1671.81,1036.55 1681.83,1015.73C1691.85,995.695 1704.93,985.676 1721.13,985.676C1735.82,985.676 1749.68,997.617 1762.81,1021.5C1773.6,1043.09 1779,1062.76 1779,1080.51C1779,1124.48 1766.29,1160.71 1740.8,1189.26C1759.33,1208.52 1781.29,1218.17 1806.77,1218.17C1852.25,1218.17 1889.67,1210.44 1918.95,1195.02C1913.55,1182.67 1910.85,1166.48 1910.85,1146.44C1910.85,1115.6 1922.43,1084.36 1945.58,1052.74C1967.17,1024.2 1985.65,1009.97 2001.07,1009.97C2015.75,1009.97 2026.92,1020.35 2034.65,1041.17C2040.82,1057.37 2043.89,1074.7 2043.89,1093.23C2043.89,1114.05 2040.41,1135.28 2033.46,1156.87C2027.33,1173.84 2020.74,1186.56 2013.83,1195.02ZM1561.56,1194.2C1545.73,1173.57 1531.32,1163.46 1517.73,1163.46C1498.15,1163.46 1488.31,1168.58 1488.31,1178.74C1488.31,1191.78 1501.9,1198.32 1529.26,1198.32C1539.05,1198.32 1549.89,1196.99 1561.56,1194.2ZM2018.36,1136.79C2018.36,1127.68 2014.75,1114.96 2007.88,1098.63C2000.47,1081.43 1994.12,1072.83 1988.76,1072.83C1981.4,1072.83 1969.87,1080.56 1954.4,1096.07C1938.94,1111.71 1931.35,1124.07 1931.35,1133.17C1931.35,1145.71 1944.43,1160.16 1970.87,1176.82C1977.78,1174.12 1986.52,1169.08 1997,1161.72C2011.32,1151.93 2018.36,1143.65 2018.36,1136.79ZM1762.35,1109.29C1762.35,1101.88 1756.54,1090.4 1745.19,1074.89C1732.61,1058.37 1721.77,1050.14 1712.67,1050.14C1705.8,1050.14 1698.9,1054.25 1692.22,1062.86C1685.54,1071.27 1682.24,1079.37 1682.24,1087.1C1682.24,1093.46 1685.86,1104.81 1693.27,1120.96C1699.44,1135.09 1704.43,1144.52 1708.05,1149.5C1717.33,1145.07 1728.13,1138.66 1740.21,1130.43C1754.94,1120.45 1762.35,1113.41 1762.35,1109.29Z" style="fill:rgb(255,97,6);"/>
                    </g>
                    <g id="path3" transform="matrix(0.24,0,0,0.24,0,0)">
                        <path d="M2017.26,1547.84C2026.64,1560.33 2037.94,1570.9 2051.16,1579.5C2043.98,1553.24 2040.41,1532.7 2040.41,1517.78C2040.41,1483.06 2045.03,1458.4 2054.32,1443.71C2073.58,1413.66 2101.72,1398.61 2138.73,1398.61C2155.7,1398.61 2193.9,1406.7 2253.28,1422.9C2319.57,1441.43 2359.7,1451.81 2373.56,1454.15C2419.08,1461.1 2447.99,1464.58 2460.34,1464.58C2466.52,1464.58 2469.58,1466.5 2469.58,1470.34C2469.58,1471.9 2469.22,1473.82 2468.44,1476.11L2451.05,1520.07C2448.77,1524.69 2445.66,1527.02 2441.81,1527.02C2418.66,1527.02 2397.85,1530.5 2379.37,1537.45C2356.99,1545.92 2316.87,1565.59 2259.05,1596.42C2181.91,1637.33 2125.23,1657.73 2089,1657.73C2084.38,1675.48 2080.53,1684.36 2077.42,1684.36C2074.36,1684.36 2071.66,1676.26 2069.33,1660.06L2071.66,1657.73C2042.33,1646.15 2018.45,1631.15 1999.92,1612.62C1990.68,1603.38 1980.66,1589.88 1969.87,1572.13C1962.14,1560.56 1955.59,1554.79 1950.2,1554.79C1933.22,1554.79 1907.37,1569.43 1872.7,1598.76C1837.97,1628.82 1820.63,1651.19 1820.63,1665.83L1819.49,1665.83C1819.49,1683.58 1853.39,1699.77 1921.28,1714.41C1959.85,1722.92 1984.87,1731.75 1996.45,1741.04C2008.8,1750.28 2014.98,1765.33 2014.98,1786.15C2014.98,1820.09 2002.26,1848.59 1976.78,1871.74C1934.37,1910.31 1881.57,1944.26 1818.3,1973.53C1750.45,2005.15 1692.22,2020.98 1643.63,2020.98C1591.2,2020.98 1551.86,2003.64 1525.64,1968.91C1503.27,1940.37 1492.11,1902.58 1492.11,1855.55C1492.11,1780.75 1509.86,1715.56 1545.32,1660.06C1552.27,1649.27 1557.26,1643.87 1560.37,1643.87C1561.15,1644.64 1561.51,1645.42 1561.51,1646.15C1561.51,1650.04 1559.59,1656.59 1555.75,1665.83C1527.98,1725.21 1514.07,1774.94 1514.07,1815.06C1514.07,1850.52 1523.36,1880.62 1541.84,1905.28C1565.77,1937.67 1603.14,1953.86 1654.06,1953.86C1694.14,1953.86 1742.36,1942.29 1798.67,1919.18C1843.37,1901.43 1886.56,1879.47 1928.24,1853.21C1965.98,1829.33 1984.87,1814.69 1984.87,1809.3C1984.87,1803.12 1974.49,1796.94 1953.67,1790.77C1930.52,1785.37 1907.79,1779.97 1885.41,1774.57C1857.64,1768.4 1837.2,1761.44 1824.11,1753.76C1805.58,1742.18 1796.34,1725.99 1796.34,1705.17C1796.34,1691.26 1797.49,1678.18 1799.82,1665.83L1800.96,1665.83C1807.14,1634.99 1815.6,1611.07 1826.4,1594.14C1846.48,1564.04 1870.36,1538.6 1898.13,1517.78C1924.35,1497.7 1945.58,1487.68 1961.77,1487.68C1973.34,1487.68 1982.95,1493.86 1990.68,1506.21C1999.92,1520.07 2008.8,1533.98 2017.26,1547.84ZM2327.62,1509.18C2222.4,1475.97 2153.09,1459.5 2119.79,1459.5C2102.59,1459.5 2087.3,1465.17 2074.22,1476.47C2062.33,1486.44 2056.33,1496.1 2056.33,1505.75C2063.7,1523.41 2074.04,1551.45 2087.3,1589.79C2093.12,1590.48 2098.79,1590.8 2104.64,1590.8C2132.69,1590.8 2175.65,1577.76 2233.57,1551.45L2327.62,1509.18Z" style="fill:rgb(255,97,6);"/>
                    </g>
                    <g id="path116" transform="matrix(1.09798,0,0,1.09798,48.9935,114.434)">
                        <path d="M154.93,308.93C154.93,304.19 154.18,300.33 152.71,297.28C152.71,295.37 154.06,291.3 156.81,285.11C157.41,283.71 158.01,283.75 158.73,285.18C159.52,286.83 161.32,291.42 164.13,298.97C167.14,306.78 168.87,311.59 169.36,313.4C169.74,314.79 169.97,315.8 169.97,316.48C169.97,318.66 167.86,317.34 163.73,312.61C163.24,311.94 163.01,312.24 163.01,313.48C163.01,313.93 164.32,332.11 166.95,368.08C169.58,404.07 170.9,423.91 170.9,427.6C170.9,438.98 169.13,448.98 165.6,457.7C164.88,459.47 164.29,460.74 163.83,461.53C163.16,462.66 162.75,462.81 162.59,461.98C162.41,461.12 162.49,459.31 162.82,456.46C163.27,452.55 163.5,448 163.5,442.82C163.5,438.16 162.07,415.68 159.22,375.44C156.35,335.15 154.93,312.99 154.93,308.93Z" style="fill:rgb(255,176,0);"/>
                    </g>
                    <g id="path117" transform="matrix(1.09798,0,0,1.09798,48.9935,114.434)">
                        <path d="M196.23,196.57C196.23,191.83 195.47,187.96 194.01,184.92C194.01,183.01 195.37,178.95 198.11,172.75C198.71,171.35 199.31,171.4 200.02,172.82C200.81,174.48 202.62,179.06 205.44,186.61C208.44,194.42 210.17,199.24 210.66,201.04C211.03,202.43 211.26,203.44 211.26,204.12C211.26,206.31 209.16,204.99 205.02,200.26C204.53,199.58 204.31,199.88 204.31,201.12C204.31,201.57 205.63,219.75 208.25,255.72C210.89,291.72 212.2,311.56 212.2,315.24C212.2,326.62 210.43,336.62 206.9,345.34C206.19,347.11 205.59,348.38 205.14,349.17C204.46,350.3 204.04,350.45 203.9,349.62C203.71,348.76 203.78,346.95 204.12,344.1C204.57,340.19 204.79,335.64 204.79,330.46C204.79,325.8 203.37,303.33 200.51,263.08C197.66,222.8 196.23,200.63 196.23,196.57Z" style="fill:rgb(234,100,59);"/>
                    </g>
                    <g id="path4" transform="matrix(0.24,0,0,0.24,0,0)">
                        <path d="M1254.99,2322.87L1254.99,2324.06C1298.91,2304.76 1320.92,2276.21 1320.92,2238.42C1320.92,2218.38 1317.03,2155.93 1309.34,2051.03C1302.39,1945.4 1298.91,1882.9 1298.91,1863.64C1298.91,1842.83 1295.44,1825.49 1288.53,1811.58C1288.53,1803.12 1294.7,1784.23 1307.01,1754.9C1308.57,1751.84 1310.12,1750.28 1311.63,1750.28C1312.41,1750.28 1313.96,1751.84 1316.3,1754.9C1319.36,1763.41 1327.46,1784.59 1340.59,1818.54C1354.45,1854.77 1362.55,1876.78 1364.88,1884.46C1366.39,1891.41 1367.17,1896.4 1367.17,1899.51C1367.17,1909.53 1357.52,1903.36 1338.26,1880.98C1336.7,1877.92 1335.92,1879.06 1335.92,1884.46C1335.92,1886.02 1339.04,1930.76 1345.21,2018.64C1351.39,2106.57 1354.45,2161.7 1354.45,2184.07C1354.45,2220.3 1347.91,2255.8 1334.78,2290.48C1317.03,2337.56 1290.45,2368.76 1254.99,2384.18L1251.52,2385.37C1251.52,2397.67 1248.41,2413.87 1242.23,2433.95C1234.54,2459.39 1223.34,2480.2 1208.7,2496.4C1175.53,2535.74 1138.93,2570.42 1098.81,2600.52C1040.2,2644.49 989.284,2666.45 946.097,2666.45C909.086,2666.45 880.584,2652.95 860.5,2625.96C842.796,2602.03 833.92,2571.98 833.92,2535.74C833.92,2488.67 843.528,2440.86 862.834,2392.28C867.454,2381.48 870.519,2376.08 872.075,2376.08C873.63,2376.86 874.408,2378 874.408,2379.56C874.408,2383.4 873.219,2388.43 870.931,2394.61C857.023,2443.19 850.115,2480.2 850.115,2505.64C850.115,2528.01 855.88,2547.68 867.454,2564.66C884.427,2587.81 912.197,2599.34 950.717,2599.34C983.885,2599.34 1023.6,2585.11 1069.89,2556.56C1107.68,2534.19 1143.91,2506.42 1178.64,2473.25C1210.25,2443.19 1226.04,2423.16 1226.04,2413.09C1226.04,2406.18 1224.53,2398.86 1221.41,2391.13C1208.33,2395.75 1189.44,2398.09 1164.73,2398.09C1111.53,2398.09 1084.94,2379.97 1084.94,2343.69C1084.94,2315.97 1093.77,2291.26 1111.53,2269.67C1128.5,2250.41 1145.84,2240.75 1163.59,2240.75C1177.45,2240.75 1192.5,2249.63 1208.7,2267.38C1223.34,2282.8 1236.1,2302.06 1246.9,2325.21C1247.63,2325.21 1250.33,2324.43 1254.99,2322.87ZM1192.13,2331.98C1176.31,2311.35 1161.85,2301.19 1148.31,2301.19C1128.68,2301.19 1118.89,2306.31 1118.89,2316.47C1118.89,2329.55 1132.48,2336.05 1159.79,2336.05C1169.58,2336.05 1180.42,2334.68 1192.13,2331.98Z" style="fill:rgb(255,176,0);"/>
                    </g>
                </g>
            </g>
        </g>
    </g>
</svg>
